G04 Layer_Physical_Order=1*
G04 Layer_Color=255*
%FSLAX25Y25*%
%MOIN*%
G70*
G01*
G75*
%ADD10C,0.01969*%
%ADD11C,0.06299*%
%ADD12C,0.07087*%
%ADD13O,0.07874X0.06299*%
%ADD14R,0.07874X0.06299*%
%ADD15C,0.07874*%
%ADD16R,0.06299X0.07874*%
%ADD17O,0.06299X0.07874*%
%ADD18C,0.05000*%
G36*
X196850Y0D02*
X0D01*
Y196850D01*
X196850D01*
Y0D01*
D02*
G37*
%LPC*%
G36*
X111339Y193932D02*
X73817D01*
X73125Y193795D01*
X72539Y193403D01*
X65733Y186597D01*
X65285Y186818D01*
X65310Y187008D01*
X65174Y188036D01*
X64777Y188993D01*
X64147Y189816D01*
X63324Y190447D01*
X62366Y190843D01*
X61339Y190979D01*
X60311Y190843D01*
X59353Y190447D01*
X58531Y189816D01*
X57900Y188993D01*
X57825Y188814D01*
X53937D01*
X53246Y188677D01*
X52660Y188285D01*
X44156Y179781D01*
X43764Y179195D01*
X43627Y178504D01*
Y172096D01*
X43448Y172022D01*
X42625Y171391D01*
X41994Y170568D01*
X41597Y169610D01*
X41462Y168583D01*
Y167008D01*
X41597Y165980D01*
X41994Y165022D01*
X42625Y164200D01*
X43448Y163569D01*
X44405Y163172D01*
X45433Y163037D01*
X46461Y163172D01*
X47419Y163569D01*
X48241Y164200D01*
X48872Y165022D01*
X49269Y165980D01*
X49404Y167008D01*
Y168583D01*
X49269Y169610D01*
X48872Y170568D01*
X48241Y171391D01*
X47419Y172022D01*
X47239Y172096D01*
Y177756D01*
X54685Y185202D01*
X57825D01*
X57900Y185022D01*
X58531Y184200D01*
X59353Y183569D01*
X60311Y183172D01*
X61339Y183037D01*
X61528Y183062D01*
X61749Y182613D01*
X54156Y175020D01*
X53764Y174434D01*
X53627Y173743D01*
Y172096D01*
X53448Y172022D01*
X52625Y171391D01*
X51994Y170568D01*
X51597Y169610D01*
X51462Y168583D01*
Y167008D01*
X51597Y165980D01*
X51994Y165022D01*
X52625Y164200D01*
X53448Y163569D01*
X54405Y163172D01*
X55433Y163037D01*
X56461Y163172D01*
X57419Y163569D01*
X58241Y164200D01*
X58872Y165022D01*
X59269Y165980D01*
X59404Y167008D01*
Y168583D01*
X59269Y169610D01*
X58872Y170568D01*
X58241Y171391D01*
X57419Y172022D01*
X57239Y172096D01*
Y172994D01*
X65665Y181420D01*
X66114Y181199D01*
X66101Y181102D01*
X66263Y179869D01*
X66739Y178720D01*
X67497Y177733D01*
X68484Y176976D01*
X69633Y176499D01*
X70866Y176337D01*
X72100Y176499D01*
X73249Y176976D01*
X73700Y177322D01*
X74070Y176975D01*
X73764Y176518D01*
X73627Y175827D01*
Y172096D01*
X73448Y172022D01*
X72625Y171391D01*
X71994Y170568D01*
X71597Y169610D01*
X71462Y168583D01*
Y167008D01*
X71597Y165980D01*
X71994Y165022D01*
X72625Y164200D01*
X73246Y163724D01*
X73076Y163224D01*
X69252D01*
X68256Y164220D01*
X68872Y165022D01*
X69269Y165980D01*
X69404Y167008D01*
Y168583D01*
X69269Y169610D01*
X68872Y170568D01*
X68241Y171391D01*
X67419Y172022D01*
X66461Y172418D01*
X65433Y172554D01*
X64405Y172418D01*
X63448Y172022D01*
X62625Y171391D01*
X61994Y170568D01*
X61597Y169610D01*
X61462Y168583D01*
Y167008D01*
X61597Y165980D01*
X61994Y165022D01*
X62625Y164200D01*
X63448Y163569D01*
X64096Y163300D01*
X64156Y163211D01*
X67227Y160140D01*
X67813Y159748D01*
X68504Y159611D01*
X77559D01*
X78250Y159748D01*
X78836Y160140D01*
X81789Y163093D01*
X82181Y163679D01*
X82225Y163900D01*
X82323Y163974D01*
X82772Y164087D01*
X83448Y163569D01*
X84405Y163172D01*
X85433Y163037D01*
X86461Y163172D01*
X87419Y163569D01*
X88241Y164200D01*
X88872Y165022D01*
X89269Y165980D01*
X89404Y167008D01*
Y168583D01*
X89269Y169610D01*
X88872Y170568D01*
X88241Y171391D01*
X87419Y172022D01*
X86461Y172418D01*
X85433Y172554D01*
X84405Y172418D01*
X83624Y172095D01*
X83341Y172519D01*
X84213Y173390D01*
X109173D01*
X116002Y166561D01*
X115928Y166382D01*
X115793Y165354D01*
X115928Y164327D01*
X116015Y164117D01*
X115681Y163617D01*
X98260D01*
X98099Y164091D01*
X98241Y164200D01*
X98872Y165022D01*
X99269Y165980D01*
X99404Y167008D01*
Y168583D01*
X99269Y169610D01*
X98872Y170568D01*
X98241Y171391D01*
X97419Y172022D01*
X96461Y172418D01*
X95433Y172554D01*
X94405Y172418D01*
X93448Y172022D01*
X92625Y171391D01*
X91994Y170568D01*
X91597Y169610D01*
X91462Y168583D01*
Y167008D01*
X91597Y165980D01*
X91994Y165022D01*
X92625Y164200D01*
X92767Y164091D01*
X92607Y163617D01*
X90551D01*
X89860Y163480D01*
X89274Y163088D01*
X84291Y158106D01*
X63386D01*
X62695Y157968D01*
X62108Y157577D01*
X54156Y149624D01*
X53764Y149038D01*
X53627Y148346D01*
Y142096D01*
X53448Y142022D01*
X52625Y141391D01*
X51994Y140568D01*
X51597Y139610D01*
X51462Y138583D01*
Y137008D01*
X51597Y135980D01*
X51994Y135022D01*
X52625Y134200D01*
X52665Y134170D01*
X52504Y133696D01*
X48362D01*
X48201Y134170D01*
X48241Y134200D01*
X48872Y135022D01*
X49269Y135980D01*
X49404Y137008D01*
Y138583D01*
X49269Y139610D01*
X48872Y140568D01*
X48241Y141391D01*
X47419Y142022D01*
X46461Y142418D01*
X45433Y142554D01*
X44405Y142418D01*
X43448Y142022D01*
X42661Y141418D01*
X42407Y141464D01*
X42161Y141548D01*
Y143110D01*
X42023Y143801D01*
X41632Y144387D01*
X36710Y149309D01*
X36124Y149700D01*
X35433Y149838D01*
X17284D01*
X11649Y155473D01*
Y168062D01*
X11828Y168136D01*
X12650Y168767D01*
X13282Y169589D01*
X13678Y170547D01*
X13814Y171575D01*
X13678Y172603D01*
X13282Y173560D01*
X12650Y174383D01*
X11828Y175014D01*
X10870Y175410D01*
X9843Y175546D01*
X8815Y175410D01*
X7857Y175014D01*
X7035Y174383D01*
X6404Y173560D01*
X6007Y172603D01*
X5872Y171575D01*
X6007Y170547D01*
X6404Y169589D01*
X7035Y168767D01*
X7857Y168136D01*
X8036Y168062D01*
Y154724D01*
X8174Y154033D01*
X8565Y153447D01*
X15258Y146754D01*
X15844Y146363D01*
X16535Y146225D01*
X34685D01*
X37928Y142982D01*
X37737Y142520D01*
X31496D01*
Y133071D01*
X33627D01*
Y130315D01*
X33764Y129624D01*
X34156Y129038D01*
X44786Y118408D01*
X45372Y118016D01*
X46063Y117879D01*
X54968D01*
X55001Y117379D01*
X54405Y117300D01*
X53448Y116903D01*
X52625Y116272D01*
X51994Y115450D01*
X51597Y114492D01*
X51462Y113465D01*
Y111890D01*
X51597Y110862D01*
X51994Y109904D01*
X52625Y109082D01*
X53448Y108451D01*
X54405Y108054D01*
X55433Y107919D01*
X56461Y108054D01*
X57419Y108451D01*
X58241Y109082D01*
X58872Y109904D01*
X59269Y110862D01*
X59404Y111890D01*
Y113465D01*
X59269Y114492D01*
X58872Y115450D01*
X58241Y116272D01*
X57419Y116903D01*
X56461Y117300D01*
X55865Y117379D01*
X55898Y117879D01*
X64968D01*
X65001Y117379D01*
X64405Y117300D01*
X63448Y116903D01*
X62625Y116272D01*
X61994Y115450D01*
X61597Y114492D01*
X61462Y113465D01*
Y111890D01*
X61597Y110862D01*
X61994Y109904D01*
X62625Y109082D01*
X63448Y108451D01*
X64405Y108054D01*
X65433Y107919D01*
X66461Y108054D01*
X67419Y108451D01*
X68241Y109082D01*
X68872Y109904D01*
X69269Y110862D01*
X69404Y111890D01*
Y113465D01*
X69269Y114492D01*
X68872Y115450D01*
X68241Y116272D01*
X67419Y116903D01*
X66461Y117300D01*
X65865Y117379D01*
X65898Y117879D01*
X74968D01*
X75001Y117379D01*
X74405Y117300D01*
X73448Y116903D01*
X72625Y116272D01*
X71994Y115450D01*
X71597Y114492D01*
X71462Y113465D01*
Y111890D01*
X71597Y110862D01*
X71994Y109904D01*
X72625Y109082D01*
X73448Y108451D01*
X73627Y108377D01*
Y102788D01*
X73049Y102345D01*
X72522Y101658D01*
X72191Y100858D01*
X72078Y100000D01*
X72191Y99142D01*
X72522Y98342D01*
X73049Y97655D01*
X73736Y97128D01*
X74536Y96797D01*
X75394Y96684D01*
X75753Y96732D01*
X75987Y96258D01*
X72480Y92751D01*
X43701D01*
X43009Y92614D01*
X42423Y92222D01*
X37603Y87402D01*
X31496D01*
Y77953D01*
X39370D01*
Y84060D01*
X44449Y89139D01*
X73228D01*
X73920Y89276D01*
X74506Y89668D01*
X85690Y100852D01*
X86291Y100931D01*
X87091Y101262D01*
X87778Y101789D01*
X88305Y102476D01*
X88636Y103276D01*
X88749Y104134D01*
X88636Y104992D01*
X88305Y105792D01*
X87778Y106479D01*
X87091Y107005D01*
X86291Y107337D01*
X85787Y107403D01*
X85567Y107432D01*
Y107936D01*
X85787Y107966D01*
X86461Y108054D01*
X87419Y108451D01*
X88241Y109082D01*
X88872Y109904D01*
X89269Y110862D01*
X89404Y111890D01*
Y113465D01*
X89269Y114492D01*
X88872Y115450D01*
X88241Y116272D01*
X87419Y116903D01*
X86461Y117300D01*
X85865Y117379D01*
X85898Y117879D01*
X94968D01*
X95001Y117379D01*
X94405Y117300D01*
X93448Y116903D01*
X92625Y116272D01*
X91994Y115450D01*
X91597Y114492D01*
X91462Y113465D01*
Y111890D01*
X91597Y110862D01*
X91994Y109904D01*
X92625Y109082D01*
X93448Y108451D01*
X93627Y108377D01*
Y108346D01*
X93764Y107655D01*
X94156Y107069D01*
X105918Y95307D01*
X105613Y94571D01*
X105478Y93543D01*
X105613Y92515D01*
X106010Y91558D01*
X106551Y90853D01*
X106464Y90450D01*
X106376Y90308D01*
X106289Y90291D01*
X105703Y89899D01*
X100023Y84220D01*
X99503Y84340D01*
X99476Y84548D01*
X99058Y85557D01*
X98393Y86424D01*
X97526Y87089D01*
X96516Y87507D01*
X95933Y87584D01*
Y82677D01*
Y77770D01*
X96516Y77847D01*
X97526Y78265D01*
X98393Y78930D01*
X98875Y79559D01*
X99375Y79389D01*
Y64154D01*
X93727Y58506D01*
X93547Y58580D01*
X92520Y58715D01*
X91492Y58580D01*
X90534Y58183D01*
X89712Y57552D01*
X89081Y56730D01*
X88684Y55772D01*
X88549Y54744D01*
X88684Y53716D01*
X89081Y52759D01*
X89712Y51936D01*
X90534Y51305D01*
X91492Y50908D01*
X92520Y50773D01*
X93547Y50908D01*
X94505Y51305D01*
X95328Y51936D01*
X95959Y52759D01*
X96355Y53716D01*
X96491Y54744D01*
X96355Y55772D01*
X96281Y55951D01*
X101669Y61339D01*
X102131Y61147D01*
Y47842D01*
X101631Y47810D01*
X101562Y48327D01*
X101144Y49337D01*
X100479Y50204D01*
X99612Y50869D01*
X98603Y51287D01*
X98020Y51364D01*
Y47244D01*
X97520D01*
Y46744D01*
X93400D01*
X93477Y46161D01*
X93895Y45151D01*
X94560Y44285D01*
X95427Y43619D01*
X96436Y43201D01*
X97288Y43089D01*
X97474Y42568D01*
X93727Y38820D01*
X93547Y38895D01*
X92520Y39030D01*
X91492Y38895D01*
X90534Y38498D01*
X89712Y37867D01*
X89081Y37045D01*
X88684Y36087D01*
X88549Y35059D01*
X88684Y34031D01*
X89081Y33074D01*
X89712Y32251D01*
X90534Y31620D01*
X91492Y31223D01*
X92520Y31088D01*
X93547Y31223D01*
X94505Y31620D01*
X95328Y32251D01*
X95959Y33074D01*
X96355Y34031D01*
X96491Y35059D01*
X96355Y36087D01*
X96281Y36266D01*
X105214Y45199D01*
X105524Y45663D01*
X105967Y45426D01*
X105837Y45112D01*
X105613Y44571D01*
X105478Y43543D01*
X105613Y42516D01*
X106010Y41558D01*
X106641Y40735D01*
X107463Y40104D01*
X108421Y39708D01*
X109449Y39572D01*
X111024D01*
X112051Y39708D01*
X113009Y40104D01*
X113831Y40735D01*
X114463Y41558D01*
X114859Y42516D01*
X114995Y43543D01*
X114859Y44571D01*
X114463Y45529D01*
X113831Y46351D01*
X113009Y46982D01*
X112051Y47379D01*
X111024Y47514D01*
X109449D01*
X108421Y47379D01*
X107463Y46982D01*
X106641Y46351D01*
X106237Y45825D01*
X106032Y45557D01*
X105606Y45785D01*
X105743Y46476D01*
Y51084D01*
X106243Y51253D01*
X106641Y50735D01*
X107463Y50104D01*
X108421Y49708D01*
X109449Y49572D01*
X111024D01*
X112051Y49708D01*
X113009Y50104D01*
X113831Y50735D01*
X114463Y51558D01*
X114859Y52516D01*
X114995Y53543D01*
X114859Y54571D01*
X114463Y55529D01*
X113831Y56351D01*
X113009Y56982D01*
X112051Y57379D01*
X111024Y57514D01*
X109449D01*
X108421Y57379D01*
X107463Y56982D01*
X106641Y56351D01*
X106243Y55833D01*
X105743Y56003D01*
Y61084D01*
X106243Y61253D01*
X106641Y60735D01*
X107463Y60104D01*
X108421Y59708D01*
X109449Y59572D01*
X111024D01*
X112051Y59708D01*
X113009Y60104D01*
X113831Y60735D01*
X114463Y61558D01*
X114859Y62515D01*
X114995Y63543D01*
X114859Y64571D01*
X114463Y65529D01*
X113831Y66351D01*
X113009Y66982D01*
X112051Y67379D01*
X111024Y67514D01*
X109449D01*
X108421Y67379D01*
X107463Y66982D01*
X106641Y66351D01*
X106243Y65833D01*
X105743Y66003D01*
Y71084D01*
X106243Y71254D01*
X106641Y70735D01*
X107463Y70104D01*
X108421Y69708D01*
X109449Y69572D01*
X111024D01*
X112051Y69708D01*
X113009Y70104D01*
X113831Y70735D01*
X114463Y71558D01*
X114859Y72515D01*
X114995Y73543D01*
X114859Y74571D01*
X114463Y75529D01*
X113831Y76351D01*
X113680Y76468D01*
X113815Y76994D01*
X114339Y77345D01*
X119767Y82772D01*
X120748Y82643D01*
X121776Y82779D01*
X122733Y83175D01*
X123556Y83806D01*
X124187Y84629D01*
X124584Y85586D01*
X124719Y86614D01*
X124584Y87642D01*
X124187Y88600D01*
X123556Y89422D01*
X122733Y90053D01*
X121776Y90450D01*
X120748Y90585D01*
X119720Y90450D01*
X118763Y90053D01*
X117940Y89422D01*
X117309Y88600D01*
X116912Y87642D01*
X116777Y86614D01*
X116912Y85586D01*
X117076Y85191D01*
X115489Y83604D01*
X114963Y83785D01*
X114859Y84571D01*
X114463Y85529D01*
X113849Y86328D01*
X113846Y86380D01*
X113850Y86405D01*
X114000Y86852D01*
X114510Y86953D01*
X115096Y87345D01*
X122025Y94274D01*
X122412Y94853D01*
X122733Y94986D01*
X123556Y95617D01*
X124187Y96440D01*
X124584Y97397D01*
X124719Y98425D01*
X124584Y99453D01*
X124187Y100411D01*
X123556Y101233D01*
X122733Y101864D01*
X121776Y102261D01*
X120748Y102396D01*
X119720Y102261D01*
X118763Y101864D01*
X117940Y101233D01*
X117309Y100411D01*
X116912Y99453D01*
X116777Y98425D01*
X116912Y97397D01*
X117309Y96440D01*
X117940Y95617D01*
X117960Y95318D01*
X115395Y92752D01*
X114921Y92986D01*
X114995Y93543D01*
X114859Y94571D01*
X114463Y95529D01*
X113831Y96351D01*
X113009Y96982D01*
X112051Y97379D01*
X111024Y97514D01*
X109449D01*
X108893Y97441D01*
X97950Y108385D01*
X97982Y108883D01*
X98241Y109082D01*
X98872Y109904D01*
X99269Y110862D01*
X99404Y111890D01*
Y113465D01*
X99269Y114492D01*
X98872Y115450D01*
X98434Y116021D01*
X98811Y116351D01*
X100162Y115000D01*
Y111811D01*
X100300Y111120D01*
X100691Y110534D01*
X105918Y105307D01*
X105613Y104571D01*
X105478Y103543D01*
X105613Y102516D01*
X106010Y101558D01*
X106641Y100735D01*
X107463Y100104D01*
X108421Y99708D01*
X109449Y99572D01*
X111024D01*
X112051Y99708D01*
X113009Y100104D01*
X113831Y100735D01*
X114463Y101558D01*
X114859Y102516D01*
X114995Y103543D01*
X114859Y104571D01*
X114463Y105529D01*
X113831Y106351D01*
X113009Y106982D01*
X112051Y107379D01*
X111024Y107514D01*
X109449D01*
X108893Y107441D01*
X103775Y112559D01*
Y115748D01*
X103637Y116439D01*
X103246Y117025D01*
X99309Y120962D01*
X98723Y121354D01*
X98032Y121491D01*
X73593D01*
X73423Y121991D01*
X74236Y122615D01*
X74993Y123602D01*
X75232Y124178D01*
X98858D01*
X105809Y117227D01*
X106395Y116835D01*
X106439Y116826D01*
X106550Y116564D01*
X106591Y116286D01*
X106010Y115529D01*
X105613Y114571D01*
X105478Y113543D01*
X105613Y112516D01*
X106010Y111558D01*
X106641Y110735D01*
X107463Y110104D01*
X108421Y109708D01*
X109449Y109572D01*
X111024D01*
X112051Y109708D01*
X113009Y110104D01*
X113831Y110735D01*
X114463Y111558D01*
X114859Y112516D01*
X114995Y113543D01*
X114859Y114571D01*
X114463Y115529D01*
X113949Y116198D01*
X114155Y116698D01*
X127953D01*
X128644Y116835D01*
X129230Y117227D01*
X151929Y139926D01*
X156251D01*
X156325Y139747D01*
X156956Y138924D01*
X157778Y138293D01*
X158736Y137897D01*
X159764Y137761D01*
X160792Y137897D01*
X161749Y138293D01*
X162572Y138924D01*
X163203Y139747D01*
X163599Y140705D01*
X163735Y141732D01*
X163599Y142760D01*
X163203Y143718D01*
X162572Y144540D01*
X161749Y145171D01*
X160792Y145568D01*
X159764Y145703D01*
X158736Y145568D01*
X157778Y145171D01*
X156956Y144540D01*
X156325Y143718D01*
X156251Y143539D01*
X151181D01*
X150490Y143401D01*
X149904Y143010D01*
X130763Y123869D01*
X130339Y124152D01*
X130587Y124751D01*
X130749Y125984D01*
X130587Y127218D01*
X130111Y128367D01*
X129354Y129354D01*
X128367Y130111D01*
X127790Y130350D01*
Y142953D01*
X136575Y151737D01*
X156251D01*
X156325Y151558D01*
X156956Y150735D01*
X157778Y150104D01*
X158736Y149708D01*
X159764Y149572D01*
X160792Y149708D01*
X161749Y150104D01*
X162572Y150735D01*
X163203Y151558D01*
X163599Y152516D01*
X163735Y153543D01*
X163599Y154571D01*
X163203Y155529D01*
X162572Y156351D01*
X162054Y156749D01*
X162223Y157249D01*
X166989D01*
X167159Y156749D01*
X166641Y156351D01*
X166010Y155529D01*
X165613Y154571D01*
X165478Y153543D01*
X165613Y152516D01*
X166010Y151558D01*
X166641Y150735D01*
X167463Y150104D01*
X168421Y149708D01*
X169449Y149572D01*
X171024D01*
X172051Y149708D01*
X173009Y150104D01*
X173831Y150735D01*
X174463Y151558D01*
X174859Y152516D01*
X174995Y153543D01*
X174859Y154571D01*
X174463Y155529D01*
X173831Y156351D01*
X173313Y156749D01*
X173483Y157249D01*
X174488D01*
X175180Y157386D01*
X175766Y157778D01*
X185801Y167813D01*
X185980Y167739D01*
X187008Y167604D01*
X188036Y167739D01*
X188993Y168136D01*
X189816Y168767D01*
X190447Y169589D01*
X190843Y170547D01*
X190979Y171575D01*
X190843Y172603D01*
X190447Y173560D01*
X189816Y174383D01*
X188993Y175014D01*
X188036Y175410D01*
X187008Y175546D01*
X185980Y175410D01*
X185022Y175014D01*
X184200Y174383D01*
X183569Y173560D01*
X183172Y172603D01*
X183037Y171575D01*
X183172Y170547D01*
X183246Y170368D01*
X173740Y160862D01*
X120074D01*
X120044Y160916D01*
X120321Y161457D01*
X120791Y161519D01*
X121749Y161915D01*
X122572Y162546D01*
X123203Y163369D01*
X123599Y164327D01*
X123735Y165354D01*
X123599Y166382D01*
X123203Y167340D01*
X122572Y168162D01*
X121749Y168793D01*
X120791Y169190D01*
X119764Y169325D01*
X118736Y169190D01*
X118557Y169116D01*
X111199Y176474D01*
X110612Y176866D01*
X109921Y177003D01*
X83465D01*
X82773Y176866D01*
X82187Y176474D01*
X79234Y173521D01*
X78843Y172935D01*
X78706Y172244D01*
Y171548D01*
X78459Y171465D01*
X78206Y171418D01*
X77419Y172022D01*
X77239Y172096D01*
Y175078D01*
X82244Y180083D01*
X118298D01*
X118990Y180221D01*
X119576Y180613D01*
X120813Y181850D01*
X121287Y181616D01*
X121219Y181102D01*
X121381Y179869D01*
X121858Y178720D01*
X122615Y177733D01*
X123602Y176976D01*
X124751Y176499D01*
X125984Y176337D01*
X127218Y176499D01*
X128367Y176976D01*
X129354Y177733D01*
X130111Y178720D01*
X130350Y179296D01*
X143268D01*
X156002Y166561D01*
X155928Y166382D01*
X155793Y165354D01*
X155928Y164327D01*
X156325Y163369D01*
X156956Y162546D01*
X157778Y161915D01*
X158736Y161519D01*
X159764Y161383D01*
X160792Y161519D01*
X161749Y161915D01*
X162572Y162546D01*
X163203Y163369D01*
X163599Y164327D01*
X163735Y165354D01*
X163599Y166382D01*
X163203Y167340D01*
X162572Y168162D01*
X161749Y168793D01*
X160792Y169190D01*
X159764Y169325D01*
X158736Y169190D01*
X158557Y169116D01*
X145293Y182380D01*
X144707Y182771D01*
X144016Y182909D01*
X137210D01*
X137111Y183409D01*
X137497Y183569D01*
X138320Y184200D01*
X138951Y185022D01*
X139348Y185980D01*
X139483Y187008D01*
X139348Y188036D01*
X138951Y188993D01*
X138320Y189816D01*
X137497Y190447D01*
X136540Y190843D01*
X135512Y190979D01*
X134484Y190843D01*
X133526Y190447D01*
X132704Y189816D01*
X132073Y188993D01*
X131999Y188814D01*
X123416D01*
X122725Y188677D01*
X122139Y188285D01*
X120922Y187068D01*
X120396Y187249D01*
X120292Y188036D01*
X119896Y188993D01*
X119265Y189816D01*
X118442Y190447D01*
X117484Y190843D01*
X116457Y190979D01*
X115429Y190843D01*
X115250Y190769D01*
X112616Y193403D01*
X112030Y193795D01*
X111339Y193932D01*
D02*
G37*
G36*
X21339Y190979D02*
X20311Y190843D01*
X19353Y190447D01*
X18531Y189816D01*
X17900Y188993D01*
X17503Y188036D01*
X17368Y187008D01*
X17496Y186033D01*
X17374Y185878D01*
X17095Y185658D01*
X16981Y185705D01*
X15748Y185868D01*
X14515Y185705D01*
X13365Y185229D01*
X12378Y184472D01*
X11621Y183485D01*
X11145Y182336D01*
X10983Y181102D01*
X11145Y179869D01*
X11621Y178720D01*
X12378Y177733D01*
X13365Y176976D01*
X14515Y176499D01*
X15748Y176337D01*
X16981Y176499D01*
X18131Y176976D01*
X19117Y177733D01*
X19875Y178720D01*
X20351Y179869D01*
X20513Y181102D01*
X20351Y182336D01*
X20185Y182736D01*
X20535Y183143D01*
X21339Y183037D01*
X22366Y183172D01*
X23324Y183569D01*
X24147Y184200D01*
X24778Y185022D01*
X25174Y185980D01*
X25310Y187008D01*
X25174Y188036D01*
X24778Y188993D01*
X24147Y189816D01*
X23324Y190447D01*
X22366Y190843D01*
X21339Y190979D01*
D02*
G37*
G36*
X175512D02*
X174484Y190843D01*
X173526Y190447D01*
X172704Y189816D01*
X172073Y188993D01*
X171676Y188036D01*
X171541Y187008D01*
X171676Y185980D01*
X172073Y185022D01*
X172704Y184200D01*
X173526Y183569D01*
X174484Y183172D01*
X175512Y183037D01*
X176291Y183140D01*
X176652Y182704D01*
X176499Y182336D01*
X176337Y181102D01*
X176499Y179869D01*
X176976Y178720D01*
X177733Y177733D01*
X178720Y176976D01*
X179869Y176499D01*
X181102Y176337D01*
X182336Y176499D01*
X183485Y176976D01*
X184472Y177733D01*
X185229Y178720D01*
X185705Y179869D01*
X185868Y181102D01*
X185705Y182336D01*
X185229Y183485D01*
X184472Y184472D01*
X183485Y185229D01*
X182336Y185705D01*
X181102Y185868D01*
X179869Y185705D01*
X179755Y185658D01*
X179477Y185878D01*
X179355Y186033D01*
X179483Y187008D01*
X179348Y188036D01*
X178951Y188993D01*
X178320Y189816D01*
X177497Y190447D01*
X176540Y190843D01*
X175512Y190979D01*
D02*
G37*
G36*
X35433Y172554D02*
X34405Y172418D01*
X33448Y172022D01*
X32625Y171391D01*
X31994Y170568D01*
X31597Y169610D01*
X31596Y169602D01*
X27431D01*
X27405Y169664D01*
X26711Y170569D01*
X25806Y171263D01*
X24753Y171700D01*
X23622Y171848D01*
X22491Y171700D01*
X21438Y171263D01*
X20533Y170569D01*
X19839Y169664D01*
X19403Y168611D01*
X19254Y167480D01*
X19403Y166350D01*
X19839Y165296D01*
X20533Y164392D01*
X21438Y163698D01*
X22491Y163261D01*
X23622Y163112D01*
X24753Y163261D01*
X25806Y163698D01*
X26711Y164392D01*
X27405Y165296D01*
X27692Y165989D01*
X31596D01*
X31597Y165980D01*
X31994Y165022D01*
X32625Y164200D01*
X33448Y163569D01*
X34405Y163172D01*
X35433Y163037D01*
X36461Y163172D01*
X37419Y163569D01*
X38241Y164200D01*
X38872Y165022D01*
X39269Y165980D01*
X39404Y167008D01*
Y168583D01*
X39269Y169610D01*
X38872Y170568D01*
X38241Y171391D01*
X37419Y172022D01*
X36461Y172418D01*
X35433Y172554D01*
D02*
G37*
G36*
X24122Y161997D02*
Y157980D01*
X28139D01*
X28048Y158666D01*
X27591Y159772D01*
X26862Y160721D01*
X25913Y161449D01*
X24808Y161907D01*
X24122Y161997D01*
D02*
G37*
G36*
X23122Y161997D02*
X22436Y161907D01*
X21331Y161449D01*
X20382Y160721D01*
X19654Y159772D01*
X19196Y158666D01*
X19105Y157980D01*
X23122D01*
Y161997D01*
D02*
G37*
G36*
Y156980D02*
X19105D01*
X19196Y156294D01*
X19654Y155189D01*
X20382Y154240D01*
X21331Y153512D01*
X22436Y153054D01*
X23122Y152964D01*
Y156980D01*
D02*
G37*
G36*
X28139D02*
X24122D01*
Y152964D01*
X24808Y153054D01*
X25913Y153512D01*
X26862Y154240D01*
X27591Y155189D01*
X28048Y156294D01*
X28139Y156980D01*
D02*
G37*
G36*
X171024Y147729D02*
X170736D01*
Y144043D01*
X175143D01*
X175066Y144627D01*
X174648Y145636D01*
X173983Y146503D01*
X173116Y147168D01*
X172107Y147586D01*
X171024Y147729D01*
D02*
G37*
G36*
X169736D02*
X169449D01*
X168366Y147586D01*
X167356Y147168D01*
X166489Y146503D01*
X165824Y145636D01*
X165406Y144627D01*
X165329Y144043D01*
X169736D01*
Y147729D01*
D02*
G37*
G36*
X175143Y143043D02*
X170736D01*
Y139358D01*
X171024D01*
X172107Y139500D01*
X173116Y139919D01*
X173983Y140584D01*
X174648Y141451D01*
X175066Y142460D01*
X175143Y143043D01*
D02*
G37*
G36*
X169736D02*
X165329D01*
X165406Y142460D01*
X165824Y141451D01*
X166489Y140584D01*
X167356Y139919D01*
X168366Y139500D01*
X169449Y139358D01*
X169736D01*
Y143043D01*
D02*
G37*
G36*
X187008Y135546D02*
X185980Y135410D01*
X185022Y135014D01*
X184200Y134383D01*
X183569Y133560D01*
X183172Y132603D01*
X183037Y131575D01*
X183140Y130795D01*
X182704Y130435D01*
X182336Y130587D01*
X181102Y130749D01*
X179869Y130587D01*
X178720Y130111D01*
X177733Y129354D01*
X176976Y128367D01*
X176499Y127218D01*
X176337Y125984D01*
X176499Y124751D01*
X176976Y123602D01*
X177733Y122615D01*
X178720Y121858D01*
X179869Y121381D01*
X181102Y121219D01*
X182336Y121381D01*
X183485Y121858D01*
X184472Y122615D01*
X185229Y123602D01*
X185705Y124751D01*
X185868Y125984D01*
X185705Y127218D01*
X185658Y127331D01*
X185878Y127610D01*
X186033Y127732D01*
X187008Y127604D01*
X188036Y127739D01*
X188993Y128136D01*
X189816Y128767D01*
X190447Y129589D01*
X190843Y130547D01*
X190979Y131575D01*
X190843Y132603D01*
X190447Y133560D01*
X189816Y134383D01*
X188993Y135014D01*
X188036Y135410D01*
X187008Y135546D01*
D02*
G37*
G36*
X171024Y137514D02*
X169449D01*
X168421Y137379D01*
X167463Y136982D01*
X166641Y136351D01*
X166010Y135529D01*
X165613Y134571D01*
X165478Y133543D01*
X165613Y132516D01*
X166010Y131558D01*
X166641Y130735D01*
X167463Y130104D01*
X168421Y129708D01*
X169449Y129572D01*
X171024D01*
X172051Y129708D01*
X173009Y130104D01*
X173831Y130735D01*
X174463Y131558D01*
X174859Y132516D01*
X174995Y133543D01*
X174859Y134571D01*
X174463Y135529D01*
X173831Y136351D01*
X173009Y136982D01*
X172051Y137379D01*
X171024Y137514D01*
D02*
G37*
G36*
Y127514D02*
X169449D01*
X168421Y127379D01*
X167463Y126982D01*
X166641Y126351D01*
X166010Y125529D01*
X165613Y124571D01*
X165478Y123543D01*
X165613Y122516D01*
X166010Y121558D01*
X166641Y120735D01*
X167463Y120104D01*
X168421Y119708D01*
X169449Y119572D01*
X171024D01*
X172051Y119708D01*
X173009Y120104D01*
X173831Y120735D01*
X174463Y121558D01*
X174859Y122516D01*
X174995Y123543D01*
X174859Y124571D01*
X174463Y125529D01*
X173831Y126351D01*
X173009Y126982D01*
X172051Y127379D01*
X171024Y127514D01*
D02*
G37*
G36*
X9843Y135546D02*
X8815Y135410D01*
X7857Y135014D01*
X7035Y134383D01*
X6404Y133560D01*
X6007Y132603D01*
X5872Y131575D01*
X6007Y130547D01*
X6404Y129589D01*
X7035Y128767D01*
X7857Y128136D01*
X8815Y127739D01*
X9843Y127604D01*
X10817Y127732D01*
X10972Y127610D01*
X11192Y127331D01*
X11145Y127218D01*
X10983Y125984D01*
X11145Y124751D01*
X11621Y123602D01*
X12378Y122615D01*
X13365Y121858D01*
X14515Y121381D01*
X15748Y121219D01*
X16981Y121381D01*
X17581Y121630D01*
X17864Y121206D01*
X14921Y118263D01*
X13356D01*
X13282Y118442D01*
X12650Y119265D01*
X11828Y119896D01*
X10870Y120292D01*
X9843Y120428D01*
X8815Y120292D01*
X7857Y119896D01*
X7035Y119265D01*
X6404Y118442D01*
X6007Y117484D01*
X5872Y116457D01*
X6007Y115429D01*
X6404Y114471D01*
X7035Y113649D01*
X7857Y113018D01*
X8815Y112621D01*
X9843Y112486D01*
X10870Y112621D01*
X11828Y113018D01*
X12650Y113649D01*
X13282Y114471D01*
X13356Y114650D01*
X15669D01*
X16361Y114788D01*
X16947Y115179D01*
X20827Y119060D01*
X36496D01*
X41535Y114020D01*
X41462Y113465D01*
Y111890D01*
X41597Y110862D01*
X41994Y109904D01*
X42625Y109082D01*
X43448Y108451D01*
X44405Y108054D01*
X45433Y107919D01*
X46461Y108054D01*
X47418Y108451D01*
X48241Y109082D01*
X48872Y109904D01*
X49269Y110862D01*
X49404Y111890D01*
Y113465D01*
X49269Y114492D01*
X48872Y115450D01*
X48241Y116272D01*
X47418Y116903D01*
X46461Y117300D01*
X45433Y117436D01*
X44405Y117300D01*
X43669Y116995D01*
X38521Y122143D01*
X37935Y122535D01*
X37244Y122672D01*
X20079D01*
X19740Y122605D01*
X19458Y123059D01*
X19875Y123602D01*
X20351Y124751D01*
X20513Y125984D01*
X20351Y127218D01*
X19875Y128367D01*
X19117Y129354D01*
X18131Y130111D01*
X16981Y130587D01*
X15748Y130749D01*
X14515Y130587D01*
X14147Y130435D01*
X13711Y130795D01*
X13814Y131575D01*
X13678Y132603D01*
X13282Y133560D01*
X12650Y134383D01*
X11828Y135014D01*
X10870Y135410D01*
X9843Y135546D01*
D02*
G37*
G36*
X35433Y117436D02*
X34405Y117300D01*
X33448Y116903D01*
X32625Y116272D01*
X31994Y115450D01*
X31597Y114492D01*
X31596Y114483D01*
X27431D01*
X27405Y114546D01*
X26711Y115451D01*
X25806Y116145D01*
X24753Y116581D01*
X23622Y116730D01*
X22491Y116581D01*
X21438Y116145D01*
X20533Y115451D01*
X19839Y114546D01*
X19403Y113493D01*
X19254Y112362D01*
X19403Y111232D01*
X19839Y110178D01*
X20533Y109274D01*
X21438Y108579D01*
X22491Y108143D01*
X23622Y107994D01*
X24753Y108143D01*
X25806Y108579D01*
X26711Y109274D01*
X27405Y110178D01*
X27692Y110871D01*
X31596D01*
X31597Y110862D01*
X31994Y109904D01*
X32625Y109082D01*
X33448Y108451D01*
X34405Y108054D01*
X35433Y107919D01*
X36461Y108054D01*
X37418Y108451D01*
X38241Y109082D01*
X38872Y109904D01*
X39269Y110862D01*
X39404Y111890D01*
Y113465D01*
X39269Y114492D01*
X38872Y115450D01*
X38241Y116272D01*
X37418Y116903D01*
X36461Y117300D01*
X35433Y117436D01*
D02*
G37*
G36*
X187008Y120428D02*
X185980Y120292D01*
X185022Y119896D01*
X184200Y119265D01*
X183569Y118442D01*
X183172Y117484D01*
X183037Y116457D01*
X183172Y115429D01*
X183569Y114471D01*
X184200Y113649D01*
X185022Y113018D01*
X185980Y112621D01*
X187008Y112486D01*
X188036Y112621D01*
X188993Y113018D01*
X189816Y113649D01*
X190447Y114471D01*
X190843Y115429D01*
X190979Y116457D01*
X190843Y117484D01*
X190447Y118442D01*
X189816Y119265D01*
X188993Y119896D01*
X188036Y120292D01*
X187008Y120428D01*
D02*
G37*
G36*
X171024Y117514D02*
X169449D01*
X168421Y117379D01*
X167463Y116982D01*
X166641Y116351D01*
X166010Y115529D01*
X165613Y114571D01*
X165478Y113543D01*
X165613Y112516D01*
X166010Y111558D01*
X166641Y110735D01*
X167463Y110104D01*
X168421Y109708D01*
X169449Y109572D01*
X171024D01*
X172051Y109708D01*
X173009Y110104D01*
X173831Y110735D01*
X174463Y111558D01*
X174859Y112516D01*
X174995Y113543D01*
X174859Y114571D01*
X174463Y115529D01*
X173831Y116351D01*
X173009Y116982D01*
X172051Y117379D01*
X171024Y117514D01*
D02*
G37*
G36*
X160748Y114207D02*
X159720Y114072D01*
X158763Y113675D01*
X157940Y113044D01*
X157309Y112222D01*
X157235Y112042D01*
X151575D01*
X150883Y111905D01*
X150297Y111513D01*
X144392Y105608D01*
X144000Y105022D01*
X143863Y104331D01*
Y91299D01*
X127794Y75230D01*
X127218Y75469D01*
X125984Y75631D01*
X124751Y75469D01*
X123602Y74993D01*
X122615Y74236D01*
X121858Y73249D01*
X121381Y72100D01*
X121219Y70866D01*
X121381Y69633D01*
X121858Y68484D01*
X122615Y67497D01*
X123602Y66739D01*
X124751Y66263D01*
X125984Y66101D01*
X127218Y66263D01*
X128367Y66739D01*
X129354Y67497D01*
X130111Y68484D01*
X130587Y69633D01*
X130749Y70866D01*
X130587Y72100D01*
X130348Y72676D01*
X146947Y89274D01*
X147338Y89860D01*
X147476Y90551D01*
Y103583D01*
X152323Y108430D01*
X157235D01*
X157309Y108251D01*
X157940Y107428D01*
X158763Y106797D01*
X159720Y106401D01*
X160748Y106265D01*
X161776Y106401D01*
X162733Y106797D01*
X163556Y107428D01*
X164187Y108251D01*
X164584Y109209D01*
X164719Y110236D01*
X164584Y111264D01*
X164187Y112222D01*
X163556Y113044D01*
X162733Y113675D01*
X161776Y114072D01*
X160748Y114207D01*
D02*
G37*
G36*
X120748D02*
X119720Y114072D01*
X118763Y113675D01*
X117940Y113044D01*
X117309Y112222D01*
X116912Y111264D01*
X116777Y110236D01*
X116912Y109209D01*
X117309Y108251D01*
X117940Y107428D01*
X118763Y106797D01*
X119720Y106401D01*
X120748Y106265D01*
X121776Y106401D01*
X122733Y106797D01*
X123556Y107428D01*
X124187Y108251D01*
X124584Y109209D01*
X124719Y110236D01*
X124584Y111264D01*
X124187Y112222D01*
X123556Y113044D01*
X122733Y113675D01*
X121776Y114072D01*
X120748Y114207D01*
D02*
G37*
G36*
X24122Y106879D02*
Y102862D01*
X28139D01*
X28048Y103548D01*
X27591Y104653D01*
X26862Y105603D01*
X25913Y106331D01*
X24808Y106789D01*
X24122Y106879D01*
D02*
G37*
G36*
X23122D02*
X22436Y106789D01*
X21331Y106331D01*
X20382Y105603D01*
X19654Y104653D01*
X19196Y103548D01*
X19105Y102862D01*
X23122D01*
Y106879D01*
D02*
G37*
G36*
X171024Y107514D02*
X169449D01*
X168421Y107379D01*
X167463Y106982D01*
X166641Y106351D01*
X166010Y105529D01*
X165613Y104571D01*
X165478Y103543D01*
X165613Y102516D01*
X166010Y101558D01*
X166614Y100771D01*
X166567Y100518D01*
X166483Y100271D01*
X164245D01*
X164187Y100411D01*
X163556Y101233D01*
X162733Y101864D01*
X161776Y102261D01*
X160748Y102396D01*
X159720Y102261D01*
X158763Y101864D01*
X157940Y101233D01*
X157309Y100411D01*
X156912Y99453D01*
X156777Y98425D01*
X156912Y97397D01*
X157309Y96440D01*
X157940Y95617D01*
X158763Y94986D01*
X159720Y94590D01*
X160748Y94454D01*
X161776Y94590D01*
X162733Y94986D01*
X163556Y95617D01*
X164187Y96440D01*
X164278Y96658D01*
X166249D01*
X166493Y96158D01*
X166010Y95529D01*
X165613Y94571D01*
X165478Y93543D01*
X165613Y92515D01*
X166010Y91558D01*
X166641Y90735D01*
X167463Y90104D01*
X168421Y89708D01*
X169449Y89572D01*
X171024D01*
X172051Y89708D01*
X173009Y90104D01*
X173831Y90735D01*
X174463Y91558D01*
X174859Y92515D01*
X175359Y92480D01*
Y84606D01*
X174859Y84571D01*
X174463Y85529D01*
X173831Y86351D01*
X173009Y86982D01*
X172051Y87379D01*
X171024Y87514D01*
X169449D01*
X168421Y87379D01*
X167463Y86982D01*
X166641Y86351D01*
X166010Y85529D01*
X165613Y84571D01*
X165478Y83543D01*
X165613Y82516D01*
X166010Y81558D01*
X166641Y80735D01*
X167463Y80104D01*
X168421Y79708D01*
X169449Y79572D01*
X171024D01*
X172051Y79708D01*
X173009Y80104D01*
X173831Y80735D01*
X174463Y81558D01*
X174859Y82516D01*
X175359Y82481D01*
Y77914D01*
X173812Y76366D01*
X173009Y76982D01*
X172051Y77379D01*
X171024Y77514D01*
X169449D01*
X168421Y77379D01*
X167463Y76982D01*
X166641Y76351D01*
X166010Y75529D01*
X165613Y74571D01*
X165478Y73543D01*
X165613Y72515D01*
X166010Y71558D01*
X166641Y70735D01*
X167463Y70104D01*
X168421Y69708D01*
X169449Y69572D01*
X171024D01*
X172051Y69708D01*
X173009Y70104D01*
X173831Y70735D01*
X174463Y71558D01*
X174731Y72206D01*
X174821Y72266D01*
X178443Y75888D01*
X178834Y76474D01*
X178972Y77165D01*
Y95669D01*
X178834Y96361D01*
X178443Y96947D01*
X175647Y99742D01*
X175061Y100133D01*
X174370Y100271D01*
X173989D01*
X173905Y100518D01*
X173859Y100771D01*
X174463Y101558D01*
X174859Y102516D01*
X174995Y103543D01*
X174859Y104571D01*
X174463Y105529D01*
X173831Y106351D01*
X173009Y106982D01*
X172051Y107379D01*
X171024Y107514D01*
D02*
G37*
G36*
X28139Y101862D02*
X24122D01*
Y97846D01*
X24808Y97936D01*
X25913Y98394D01*
X26862Y99122D01*
X27591Y100071D01*
X28048Y101176D01*
X28139Y101862D01*
D02*
G37*
G36*
X23122D02*
X19105D01*
X19196Y101176D01*
X19654Y100071D01*
X20382Y99122D01*
X21331Y98394D01*
X22436Y97936D01*
X23122Y97846D01*
Y101862D01*
D02*
G37*
G36*
X94933Y87584D02*
X94350Y87507D01*
X93340Y87089D01*
X92474Y86424D01*
X91808Y85557D01*
X91390Y84548D01*
X91248Y83465D01*
Y83177D01*
X94933D01*
Y87584D01*
D02*
G37*
G36*
X75433Y87436D02*
X74405Y87300D01*
X73448Y86904D01*
X72625Y86273D01*
X71994Y85450D01*
X71597Y84492D01*
X71462Y83465D01*
Y82284D01*
X69648Y80470D01*
X69224Y80753D01*
X69269Y80862D01*
X69404Y81890D01*
Y83465D01*
X69269Y84492D01*
X68872Y85450D01*
X68241Y86273D01*
X67419Y86904D01*
X66461Y87300D01*
X65433Y87436D01*
X64405Y87300D01*
X63448Y86904D01*
X62625Y86273D01*
X61994Y85450D01*
X61597Y84492D01*
X61462Y83465D01*
Y81890D01*
X61597Y80862D01*
X61994Y79904D01*
X62625Y79082D01*
X63448Y78451D01*
X64405Y78054D01*
X65433Y77919D01*
X66461Y78054D01*
X66570Y78099D01*
X66853Y77675D01*
X55540Y66363D01*
X55067Y66596D01*
X55152Y67244D01*
X55017Y68272D01*
X54620Y69230D01*
X53989Y70052D01*
X53167Y70683D01*
X52209Y71080D01*
X51181Y71215D01*
X50153Y71080D01*
X49196Y70683D01*
X48373Y70052D01*
X47742Y69230D01*
X47345Y68272D01*
X47210Y67244D01*
X47345Y66216D01*
X47742Y65259D01*
X48316Y64511D01*
X48186Y64011D01*
X44449D01*
X42924Y65536D01*
X43206Y66216D01*
X43341Y67244D01*
X43206Y68272D01*
X42809Y69230D01*
X42178Y70052D01*
X41356Y70683D01*
X40398Y71080D01*
X39370Y71215D01*
X38342Y71080D01*
X37385Y70683D01*
X36562Y70052D01*
X35931Y69230D01*
X35534Y68272D01*
X35399Y67244D01*
X35534Y66216D01*
X35931Y65259D01*
X36562Y64436D01*
X37385Y63805D01*
X38342Y63408D01*
X39370Y63273D01*
X39996Y63355D01*
X42423Y60927D01*
X43009Y60536D01*
X43701Y60398D01*
X53937D01*
X54628Y60536D01*
X55214Y60927D01*
X65695Y71408D01*
X66143Y71187D01*
X66101Y70866D01*
X66263Y69633D01*
X66502Y69057D01*
X49904Y52459D01*
X49512Y51872D01*
X49375Y51181D01*
Y30757D01*
X49196Y30683D01*
X48373Y30052D01*
X47742Y29230D01*
X47345Y28272D01*
X47210Y27244D01*
X47345Y26216D01*
X47742Y25259D01*
X48373Y24436D01*
X49196Y23805D01*
X50153Y23408D01*
X51181Y23273D01*
X52209Y23408D01*
X53167Y23805D01*
X53989Y24436D01*
X54387Y24954D01*
X54887Y24784D01*
Y23977D01*
X48464Y17554D01*
X47673D01*
X47434Y18131D01*
X46677Y19117D01*
X45690Y19875D01*
X44540Y20351D01*
X43307Y20513D01*
X42074Y20351D01*
X40925Y19875D01*
X39938Y19117D01*
X39314Y18305D01*
X38814Y18475D01*
Y19724D01*
X40647Y21557D01*
X41039Y22143D01*
X41176Y22835D01*
Y23731D01*
X41356Y23805D01*
X42178Y24436D01*
X42809Y25259D01*
X43206Y26216D01*
X43341Y27244D01*
X43206Y28272D01*
X42809Y29230D01*
X42178Y30052D01*
X41356Y30683D01*
X40398Y31080D01*
X39370Y31215D01*
X38342Y31080D01*
X37385Y30683D01*
X36562Y30052D01*
X35931Y29230D01*
X35771Y28843D01*
X35271Y28942D01*
Y34646D01*
X35133Y35337D01*
X34742Y35923D01*
X26080Y44584D01*
X25494Y44976D01*
X24803Y45114D01*
X20113D01*
X19875Y45690D01*
X19117Y46677D01*
X18131Y47434D01*
X16981Y47910D01*
X15748Y48072D01*
X14515Y47910D01*
X13365Y47434D01*
X12378Y46677D01*
X11621Y45690D01*
X11145Y44540D01*
X10983Y43307D01*
X11145Y42074D01*
X11621Y40925D01*
X12378Y39938D01*
X13365Y39180D01*
X14515Y38704D01*
X15748Y38542D01*
X16981Y38704D01*
X18131Y39180D01*
X19117Y39938D01*
X19875Y40925D01*
X20113Y41501D01*
X24055D01*
X31658Y33897D01*
Y28942D01*
X31158Y28843D01*
X30998Y29230D01*
X30367Y30052D01*
X29544Y30683D01*
X28587Y31080D01*
X27559Y31215D01*
X26531Y31080D01*
X25574Y30683D01*
X24751Y30052D01*
X24120Y29230D01*
X23723Y28272D01*
X23588Y27244D01*
X23723Y26216D01*
X23798Y26037D01*
X17780Y20020D01*
X16981Y20351D01*
X15748Y20513D01*
X14515Y20351D01*
X13365Y19875D01*
X12378Y19117D01*
X11621Y18131D01*
X11145Y16981D01*
X10983Y15748D01*
X11145Y14515D01*
X11621Y13365D01*
X12378Y12378D01*
X13365Y11621D01*
X14515Y11145D01*
X15748Y10983D01*
X16981Y11145D01*
X18131Y11621D01*
X19117Y12378D01*
X19875Y13365D01*
X20351Y14515D01*
X20513Y15748D01*
X20351Y16981D01*
X20204Y17335D01*
X26352Y23483D01*
X26531Y23408D01*
X27559Y23273D01*
X28587Y23408D01*
X29544Y23805D01*
X30367Y24436D01*
X30998Y25259D01*
X31158Y25645D01*
X31658Y25546D01*
Y11417D01*
X31796Y10726D01*
X32187Y10140D01*
X37305Y5022D01*
X37891Y4630D01*
X38583Y4493D01*
X72047D01*
X72738Y4630D01*
X73325Y5022D01*
X78443Y10140D01*
X78834Y10726D01*
X78972Y11417D01*
Y19291D01*
X78834Y19983D01*
X78443Y20569D01*
X75663Y23349D01*
X75760Y23839D01*
X75990Y23934D01*
X76857Y24600D01*
X77522Y25466D01*
X77940Y26476D01*
X78017Y27059D01*
X73898D01*
X69778D01*
X69855Y26476D01*
X70273Y25466D01*
X70825Y24747D01*
X70624Y24247D01*
X69764D01*
X67659Y26352D01*
X67733Y26531D01*
X67869Y27559D01*
X67733Y28587D01*
X67337Y29544D01*
X66706Y30367D01*
X65883Y30998D01*
X64925Y31395D01*
X63898Y31530D01*
X62870Y31395D01*
X61912Y30998D01*
X61090Y30367D01*
X60459Y29544D01*
X60062Y28587D01*
X59927Y27559D01*
X60062Y26531D01*
X60459Y25574D01*
X61090Y24751D01*
X61912Y24120D01*
X62870Y23723D01*
X63898Y23588D01*
X64925Y23723D01*
X65105Y23798D01*
X67738Y21164D01*
X68325Y20772D01*
X69016Y20635D01*
X69111Y20135D01*
X68484Y19875D01*
X67497Y19117D01*
X66739Y18131D01*
X66263Y16981D01*
X66101Y15748D01*
X66263Y14515D01*
X66502Y13938D01*
X64212Y11649D01*
X46503D01*
X46343Y12122D01*
X46677Y12378D01*
X47434Y13365D01*
X47673Y13942D01*
X49213D01*
X49904Y14079D01*
X50490Y14471D01*
X57970Y21951D01*
X58362Y22537D01*
X58499Y23228D01*
Y39291D01*
X62691Y43483D01*
X62870Y43408D01*
X63898Y43273D01*
X64925Y43408D01*
X65883Y43805D01*
X66706Y44436D01*
X67337Y45259D01*
X67733Y46216D01*
X67869Y47244D01*
X67733Y48272D01*
X67337Y49230D01*
X66706Y50052D01*
X65883Y50683D01*
X64925Y51080D01*
X63898Y51215D01*
X62870Y51080D01*
X61912Y50683D01*
X61090Y50052D01*
X60459Y49230D01*
X60062Y48272D01*
X59927Y47244D01*
X60062Y46216D01*
X60136Y46037D01*
X55416Y41317D01*
X55024Y40731D01*
X54887Y40039D01*
Y29704D01*
X54387Y29534D01*
X53989Y30052D01*
X53167Y30683D01*
X52987Y30757D01*
Y50433D01*
X69057Y66502D01*
X69633Y66263D01*
X70866Y66101D01*
X72100Y66263D01*
X73249Y66739D01*
X74236Y67497D01*
X74993Y68484D01*
X75469Y69633D01*
X75631Y70866D01*
X75469Y72100D01*
X74993Y73249D01*
X74236Y74236D01*
X73249Y74993D01*
X72100Y75469D01*
X70866Y75631D01*
X70546Y75589D01*
X70324Y76038D01*
X73046Y78759D01*
X73448Y78451D01*
X74405Y78054D01*
X75433Y77919D01*
X76461Y78054D01*
X77419Y78451D01*
X78241Y79082D01*
X78872Y79904D01*
X79269Y80862D01*
X79404Y81890D01*
Y83465D01*
X79269Y84492D01*
X78872Y85450D01*
X78241Y86273D01*
X77419Y86904D01*
X76461Y87300D01*
X75433Y87436D01*
D02*
G37*
G36*
X85433D02*
X84405Y87300D01*
X83448Y86904D01*
X82625Y86273D01*
X81994Y85450D01*
X81597Y84492D01*
X81462Y83465D01*
Y81890D01*
X81597Y80862D01*
X81994Y79904D01*
X82625Y79082D01*
X83448Y78451D01*
X84405Y78054D01*
X85433Y77919D01*
X86461Y78054D01*
X87419Y78451D01*
X88241Y79082D01*
X88872Y79904D01*
X89269Y80862D01*
X89404Y81890D01*
Y83465D01*
X89269Y84492D01*
X88872Y85450D01*
X88241Y86273D01*
X87419Y86904D01*
X86461Y87300D01*
X85433Y87436D01*
D02*
G37*
G36*
X55433D02*
X54405Y87300D01*
X53448Y86904D01*
X52625Y86273D01*
X51994Y85450D01*
X51597Y84492D01*
X51462Y83465D01*
Y81890D01*
X51597Y80862D01*
X51994Y79904D01*
X52625Y79082D01*
X53448Y78451D01*
X54405Y78054D01*
X55433Y77919D01*
X56461Y78054D01*
X57419Y78451D01*
X58241Y79082D01*
X58872Y79904D01*
X59269Y80862D01*
X59404Y81890D01*
Y83465D01*
X59269Y84492D01*
X58872Y85450D01*
X58241Y86273D01*
X57419Y86904D01*
X56461Y87300D01*
X55433Y87436D01*
D02*
G37*
G36*
X45433D02*
X44405Y87300D01*
X43448Y86904D01*
X42625Y86273D01*
X41994Y85450D01*
X41597Y84492D01*
X41462Y83465D01*
Y81890D01*
X41597Y80862D01*
X41994Y79904D01*
X42625Y79082D01*
X43448Y78451D01*
X44405Y78054D01*
X45433Y77919D01*
X46461Y78054D01*
X47418Y78451D01*
X48241Y79082D01*
X48872Y79904D01*
X49269Y80862D01*
X49404Y81890D01*
Y83465D01*
X49269Y84492D01*
X48872Y85450D01*
X48241Y86273D01*
X47418Y86904D01*
X46461Y87300D01*
X45433Y87436D01*
D02*
G37*
G36*
X94933Y82177D02*
X91248D01*
Y81890D01*
X91390Y80806D01*
X91808Y79797D01*
X92474Y78930D01*
X93340Y78265D01*
X94350Y77847D01*
X94933Y77770D01*
Y82177D01*
D02*
G37*
G36*
X187008Y80428D02*
X185980Y80292D01*
X185022Y79896D01*
X184200Y79265D01*
X183569Y78442D01*
X183172Y77485D01*
X183037Y76457D01*
X183140Y75677D01*
X182704Y75317D01*
X182336Y75469D01*
X181102Y75631D01*
X179869Y75469D01*
X178720Y74993D01*
X177733Y74236D01*
X176976Y73249D01*
X176499Y72100D01*
X176337Y70866D01*
X176499Y69633D01*
X176976Y68484D01*
X177733Y67497D01*
X178720Y66739D01*
X179869Y66263D01*
X181102Y66101D01*
X182336Y66263D01*
X183485Y66739D01*
X184472Y67497D01*
X185229Y68484D01*
X185705Y69633D01*
X185868Y70866D01*
X185705Y72100D01*
X185658Y72213D01*
X185878Y72492D01*
X186033Y72614D01*
X187008Y72486D01*
X188036Y72621D01*
X188993Y73018D01*
X189816Y73649D01*
X190447Y74471D01*
X190843Y75429D01*
X190979Y76457D01*
X190843Y77485D01*
X190447Y78442D01*
X189816Y79265D01*
X188993Y79896D01*
X188036Y80292D01*
X187008Y80428D01*
D02*
G37*
G36*
X9843D02*
X8815Y80292D01*
X7857Y79896D01*
X7035Y79265D01*
X6404Y78442D01*
X6007Y77485D01*
X5872Y76457D01*
X6007Y75429D01*
X6404Y74471D01*
X7035Y73649D01*
X7857Y73018D01*
X8815Y72621D01*
X9843Y72486D01*
X10817Y72614D01*
X10972Y72492D01*
X11192Y72213D01*
X11145Y72100D01*
X10983Y70866D01*
X11145Y69633D01*
X11621Y68484D01*
X12378Y67497D01*
X13365Y66739D01*
X14515Y66263D01*
X15748Y66101D01*
X16981Y66263D01*
X18131Y66739D01*
X19117Y67497D01*
X19875Y68484D01*
X20351Y69633D01*
X20513Y70866D01*
X20351Y72100D01*
X19875Y73249D01*
X19117Y74236D01*
X18131Y74993D01*
X16981Y75469D01*
X15748Y75631D01*
X14515Y75469D01*
X14147Y75317D01*
X13711Y75677D01*
X13814Y76457D01*
X13678Y77485D01*
X13282Y78442D01*
X12650Y79265D01*
X11828Y79896D01*
X10870Y80292D01*
X9843Y80428D01*
D02*
G37*
G36*
X27559Y71215D02*
X26531Y71080D01*
X25574Y70683D01*
X24751Y70052D01*
X24120Y69230D01*
X23723Y68272D01*
X23588Y67244D01*
X23723Y66216D01*
X24120Y65259D01*
X24751Y64436D01*
X25574Y63805D01*
X26531Y63408D01*
X27559Y63273D01*
X28587Y63408D01*
X29544Y63805D01*
X30367Y64436D01*
X30998Y65259D01*
X31395Y66216D01*
X31530Y67244D01*
X31395Y68272D01*
X30998Y69230D01*
X30367Y70052D01*
X29544Y70683D01*
X28587Y71080D01*
X27559Y71215D01*
D02*
G37*
G36*
X160748Y90585D02*
X159720Y90450D01*
X158763Y90053D01*
X157940Y89422D01*
X157309Y88600D01*
X156912Y87642D01*
X156777Y86614D01*
X156912Y85586D01*
X157309Y84629D01*
X157940Y83806D01*
X158763Y83175D01*
X158942Y83101D01*
Y73032D01*
X159079Y72340D01*
X159471Y71754D01*
X165918Y65307D01*
X165613Y64571D01*
X165478Y63543D01*
X165613Y62515D01*
X166010Y61558D01*
X166641Y60735D01*
X167463Y60104D01*
X168421Y59708D01*
X169449Y59572D01*
X171024D01*
X172051Y59708D01*
X173009Y60104D01*
X173831Y60735D01*
X174463Y61558D01*
X174859Y62515D01*
X174995Y63543D01*
X174859Y64571D01*
X174463Y65529D01*
X173831Y66351D01*
X173009Y66982D01*
X172051Y67379D01*
X171024Y67514D01*
X169449D01*
X168893Y67441D01*
X162554Y73780D01*
Y83101D01*
X162733Y83175D01*
X163556Y83806D01*
X164187Y84629D01*
X164584Y85586D01*
X164719Y86614D01*
X164584Y87642D01*
X164187Y88600D01*
X163556Y89422D01*
X162733Y90053D01*
X161776Y90450D01*
X160748Y90585D01*
D02*
G37*
G36*
X187008Y65310D02*
X185980Y65174D01*
X185022Y64777D01*
X184200Y64147D01*
X183569Y63324D01*
X183172Y62366D01*
X183037Y61339D01*
X183172Y60311D01*
X183569Y59353D01*
X184200Y58531D01*
X185022Y57900D01*
X185980Y57503D01*
X187008Y57368D01*
X188036Y57503D01*
X188993Y57900D01*
X189816Y58531D01*
X190447Y59353D01*
X190843Y60311D01*
X190979Y61339D01*
X190843Y62366D01*
X190447Y63324D01*
X189816Y64147D01*
X188993Y64777D01*
X188036Y65174D01*
X187008Y65310D01*
D02*
G37*
G36*
X119764Y59089D02*
X118736Y58954D01*
X117778Y58557D01*
X116956Y57926D01*
X116325Y57104D01*
X115928Y56146D01*
X115793Y55118D01*
X115928Y54090D01*
X116325Y53133D01*
X116956Y52310D01*
X117778Y51679D01*
X118736Y51282D01*
X119764Y51147D01*
X120791Y51282D01*
X121749Y51679D01*
X122572Y52310D01*
X123203Y53133D01*
X123599Y54090D01*
X123735Y55118D01*
X123599Y56146D01*
X123203Y57104D01*
X122572Y57926D01*
X121749Y58557D01*
X120791Y58954D01*
X119764Y59089D01*
D02*
G37*
G36*
X68898Y58715D02*
X67870Y58580D01*
X66912Y58183D01*
X66090Y57552D01*
X65459Y56730D01*
X65062Y55772D01*
X64927Y54744D01*
X65062Y53716D01*
X65459Y52759D01*
X66090Y51936D01*
X66912Y51305D01*
X67870Y50908D01*
X68898Y50773D01*
X69925Y50908D01*
X70883Y51305D01*
X71706Y51936D01*
X72337Y52759D01*
X72733Y53716D01*
X72869Y54744D01*
X72733Y55772D01*
X72337Y56730D01*
X71706Y57552D01*
X70883Y58183D01*
X69925Y58580D01*
X68898Y58715D01*
D02*
G37*
G36*
X159764Y59089D02*
X158736Y58954D01*
X157778Y58557D01*
X156956Y57926D01*
X156325Y57104D01*
X155928Y56146D01*
X155793Y55118D01*
X155928Y54090D01*
X156325Y53133D01*
X156956Y52310D01*
X157778Y51679D01*
X158736Y51282D01*
X159764Y51147D01*
X160792Y51282D01*
X161749Y51679D01*
X161825Y51737D01*
X165936D01*
X166010Y51558D01*
X166641Y50735D01*
X167463Y50104D01*
X168421Y49708D01*
X169449Y49572D01*
X171024D01*
X172051Y49708D01*
X173009Y50104D01*
X173831Y50735D01*
X174463Y51558D01*
X174859Y52516D01*
X174995Y53543D01*
X174859Y54571D01*
X174463Y55529D01*
X173831Y56351D01*
X173009Y56982D01*
X172051Y57379D01*
X171024Y57514D01*
X169449D01*
X168421Y57379D01*
X167463Y56982D01*
X166641Y56351D01*
X166010Y55529D01*
X165936Y55350D01*
X163704D01*
X163599Y56146D01*
X163203Y57104D01*
X162572Y57926D01*
X161749Y58557D01*
X160792Y58954D01*
X159764Y59089D01*
D02*
G37*
G36*
X74398Y51364D02*
Y47744D01*
X78017D01*
X77940Y48327D01*
X77522Y49337D01*
X76857Y50204D01*
X75990Y50869D01*
X74981Y51287D01*
X74398Y51364D01*
D02*
G37*
G36*
X73398Y51364D02*
X72814Y51287D01*
X71805Y50869D01*
X70938Y50204D01*
X70273Y49337D01*
X69855Y48327D01*
X69778Y47744D01*
X73398D01*
Y51364D01*
D02*
G37*
G36*
X97020Y51364D02*
X96436Y51287D01*
X95427Y50869D01*
X94560Y50204D01*
X93895Y49337D01*
X93477Y48327D01*
X93400Y47744D01*
X97020D01*
Y51364D01*
D02*
G37*
G36*
X171024Y47514D02*
X169449D01*
X168421Y47379D01*
X167463Y46982D01*
X166641Y46351D01*
X166010Y45529D01*
X165936Y45350D01*
X163159D01*
X162572Y46115D01*
X161749Y46746D01*
X160792Y47143D01*
X159764Y47278D01*
X158736Y47143D01*
X157778Y46746D01*
X156956Y46115D01*
X156325Y45293D01*
X155928Y44335D01*
X155793Y43307D01*
X155928Y42279D01*
X156325Y41322D01*
X156956Y40499D01*
X157778Y39868D01*
X158736Y39471D01*
X159764Y39336D01*
X160792Y39471D01*
X161749Y39868D01*
X162572Y40499D01*
X163203Y41322D01*
X163375Y41737D01*
X165936D01*
X166010Y41558D01*
X166641Y40735D01*
X167463Y40104D01*
X168421Y39708D01*
X169449Y39572D01*
X171024D01*
X172051Y39708D01*
X173009Y40104D01*
X173831Y40735D01*
X174463Y41558D01*
X174859Y42516D01*
X174995Y43543D01*
X174859Y44571D01*
X174463Y45529D01*
X173831Y46351D01*
X173009Y46982D01*
X172051Y47379D01*
X171024Y47514D01*
D02*
G37*
G36*
X87520Y51215D02*
X86492Y51080D01*
X85534Y50683D01*
X84712Y50052D01*
X84081Y49230D01*
X83684Y48272D01*
X83549Y47244D01*
X83684Y46216D01*
X83758Y46037D01*
X81321Y43600D01*
X80930Y43014D01*
X80792Y42323D01*
Y22126D01*
X80930Y21435D01*
X81321Y20849D01*
X94825Y7345D01*
X95411Y6953D01*
X96102Y6816D01*
X146417D01*
X147109Y6953D01*
X147695Y7345D01*
X151734Y11384D01*
X152310Y11145D01*
X153543Y10983D01*
X154777Y11145D01*
X155926Y11621D01*
X156913Y12378D01*
X157670Y13365D01*
X158146Y14515D01*
X158308Y15748D01*
X158146Y16981D01*
X157670Y18131D01*
X156913Y19117D01*
X155926Y19875D01*
X154777Y20351D01*
X153543Y20513D01*
X152310Y20351D01*
X151161Y19875D01*
X150174Y19117D01*
X149416Y18131D01*
X148941Y16981D01*
X148778Y15748D01*
X148941Y14515D01*
X149179Y13938D01*
X145669Y10428D01*
X114224D01*
X113980Y10928D01*
X114463Y11558D01*
X114859Y12516D01*
X114995Y13543D01*
X114859Y14571D01*
X114463Y15529D01*
X113831Y16351D01*
X113009Y16982D01*
X112051Y17379D01*
X111024Y17514D01*
X109449D01*
X108421Y17379D01*
X107463Y16982D01*
X106641Y16351D01*
X106010Y15529D01*
X105613Y14571D01*
X105478Y13543D01*
X105613Y12516D01*
X106010Y11558D01*
X106493Y10928D01*
X106249Y10428D01*
X96851D01*
X96310Y10970D01*
X96593Y11393D01*
X97192Y11145D01*
X98425Y10983D01*
X99659Y11145D01*
X100808Y11621D01*
X101795Y12378D01*
X102552Y13365D01*
X103028Y14515D01*
X103190Y15748D01*
X103028Y16981D01*
X102552Y18131D01*
X101795Y19117D01*
X100808Y19875D01*
X99659Y20351D01*
X98425Y20513D01*
X97192Y20351D01*
X96616Y20112D01*
X91016Y25712D01*
X91355Y26531D01*
X91491Y27559D01*
X91355Y28587D01*
X90959Y29544D01*
X90328Y30367D01*
X89505Y30998D01*
X88547Y31395D01*
X87520Y31530D01*
X86492Y31395D01*
X85534Y30998D01*
X84905Y30515D01*
X84405Y30759D01*
Y41575D01*
X86313Y43483D01*
X86492Y43408D01*
X87520Y43273D01*
X88547Y43408D01*
X89505Y43805D01*
X90328Y44436D01*
X90959Y45259D01*
X91355Y46216D01*
X91491Y47244D01*
X91355Y48272D01*
X90959Y49230D01*
X90328Y50052D01*
X89505Y50683D01*
X88547Y51080D01*
X87520Y51215D01*
D02*
G37*
G36*
X73398Y46744D02*
X69778D01*
X69855Y46161D01*
X70273Y45151D01*
X70938Y44285D01*
X71805Y43619D01*
X72814Y43201D01*
X73398Y43124D01*
Y46744D01*
D02*
G37*
G36*
X78017D02*
X74398D01*
Y43124D01*
X74981Y43201D01*
X75990Y43619D01*
X76857Y44285D01*
X77522Y45151D01*
X77940Y46161D01*
X78017Y46744D01*
D02*
G37*
G36*
X119764Y47278D02*
X118736Y47143D01*
X117778Y46746D01*
X116956Y46115D01*
X116325Y45293D01*
X115928Y44335D01*
X115793Y43307D01*
X115928Y42279D01*
X116325Y41322D01*
X116956Y40499D01*
X117778Y39868D01*
X118736Y39471D01*
X119764Y39336D01*
X120791Y39471D01*
X121749Y39868D01*
X122572Y40499D01*
X123203Y41322D01*
X123599Y42279D01*
X123735Y43307D01*
X123599Y44335D01*
X123203Y45293D01*
X122572Y46115D01*
X121749Y46746D01*
X120791Y47143D01*
X119764Y47278D01*
D02*
G37*
G36*
X68898Y39030D02*
X67870Y38895D01*
X66912Y38498D01*
X66090Y37867D01*
X65459Y37045D01*
X65062Y36087D01*
X64927Y35059D01*
X65062Y34031D01*
X65459Y33074D01*
X66090Y32251D01*
X66912Y31620D01*
X67870Y31223D01*
X68898Y31088D01*
X69925Y31223D01*
X70883Y31620D01*
X71706Y32251D01*
X72337Y33074D01*
X72733Y34031D01*
X72869Y35059D01*
X72733Y36087D01*
X72337Y37045D01*
X71706Y37867D01*
X70883Y38498D01*
X69925Y38895D01*
X68898Y39030D01*
D02*
G37*
G36*
X171024Y37514D02*
X169449D01*
X168421Y37379D01*
X167463Y36982D01*
X166641Y36351D01*
X166010Y35529D01*
X165613Y34571D01*
X165478Y33543D01*
X165613Y32516D01*
X166010Y31558D01*
X166641Y30735D01*
X167463Y30104D01*
X168421Y29708D01*
X169449Y29572D01*
X171024D01*
X172051Y29708D01*
X173009Y30104D01*
X173831Y30735D01*
X174463Y31558D01*
X174859Y32516D01*
X174995Y33543D01*
X174859Y34571D01*
X174463Y35529D01*
X173831Y36351D01*
X173009Y36982D01*
X172051Y37379D01*
X171024Y37514D01*
D02*
G37*
G36*
X111024D02*
X109449D01*
X108421Y37379D01*
X107463Y36982D01*
X106641Y36351D01*
X106010Y35529D01*
X105613Y34571D01*
X105478Y33543D01*
X105613Y32516D01*
X106010Y31558D01*
X106641Y30735D01*
X107463Y30104D01*
X108421Y29708D01*
X109449Y29572D01*
X111024D01*
X112051Y29708D01*
X113009Y30104D01*
X113831Y30735D01*
X114463Y31558D01*
X114859Y32516D01*
X114995Y33543D01*
X114859Y34571D01*
X114463Y35529D01*
X113831Y36351D01*
X113009Y36982D01*
X112051Y37379D01*
X111024Y37514D01*
D02*
G37*
G36*
X74398Y31679D02*
Y28059D01*
X78017D01*
X77940Y28642D01*
X77522Y29652D01*
X76857Y30519D01*
X75990Y31184D01*
X74981Y31602D01*
X74398Y31679D01*
D02*
G37*
G36*
X73398Y31679D02*
X72814Y31602D01*
X71805Y31184D01*
X70938Y30519D01*
X70273Y29652D01*
X69855Y28642D01*
X69778Y28059D01*
X73398D01*
Y31679D01*
D02*
G37*
G36*
X98020Y31679D02*
Y28059D01*
X101639D01*
X101562Y28642D01*
X101144Y29652D01*
X100479Y30519D01*
X99612Y31184D01*
X98603Y31602D01*
X98020Y31679D01*
D02*
G37*
G36*
X97020D02*
X96436Y31602D01*
X95427Y31184D01*
X94560Y30519D01*
X93895Y29652D01*
X93477Y28642D01*
X93400Y28059D01*
X97020D01*
Y31679D01*
D02*
G37*
G36*
X159764Y35467D02*
X158736Y35332D01*
X157778Y34935D01*
X156956Y34304D01*
X156325Y33481D01*
X156251Y33302D01*
X141732D01*
X141041Y33165D01*
X140455Y32773D01*
X127794Y20112D01*
X127218Y20351D01*
X125984Y20513D01*
X124751Y20351D01*
X123602Y19875D01*
X122615Y19117D01*
X121858Y18131D01*
X121381Y16981D01*
X121219Y15748D01*
X121381Y14515D01*
X121858Y13365D01*
X122615Y12378D01*
X123602Y11621D01*
X124751Y11145D01*
X125984Y10983D01*
X127218Y11145D01*
X128367Y11621D01*
X129354Y12378D01*
X130111Y13365D01*
X130587Y14515D01*
X130749Y15748D01*
X130587Y16981D01*
X130348Y17558D01*
X142480Y29690D01*
X156251D01*
X156325Y29511D01*
X156956Y28688D01*
X157778Y28057D01*
X158736Y27660D01*
X159764Y27525D01*
X160792Y27660D01*
X161749Y28057D01*
X162572Y28688D01*
X163203Y29511D01*
X163599Y30468D01*
X163735Y31496D01*
X163599Y32524D01*
X163203Y33481D01*
X162572Y34304D01*
X161749Y34935D01*
X160792Y35332D01*
X159764Y35467D01*
D02*
G37*
G36*
X119764D02*
X118736Y35332D01*
X117778Y34935D01*
X116956Y34304D01*
X116325Y33481D01*
X115928Y32524D01*
X115793Y31496D01*
X115928Y30468D01*
X116325Y29511D01*
X116956Y28688D01*
X117778Y28057D01*
X118736Y27660D01*
X119764Y27525D01*
X120791Y27660D01*
X121749Y28057D01*
X122572Y28688D01*
X123203Y29511D01*
X123599Y30468D01*
X123735Y31496D01*
X123599Y32524D01*
X123203Y33481D01*
X122572Y34304D01*
X121749Y34935D01*
X120791Y35332D01*
X119764Y35467D01*
D02*
G37*
G36*
X101639Y27059D02*
X98020D01*
Y23439D01*
X98603Y23516D01*
X99612Y23934D01*
X100479Y24600D01*
X101144Y25466D01*
X101562Y26476D01*
X101639Y27059D01*
D02*
G37*
G36*
X97020D02*
X93400D01*
X93477Y26476D01*
X93895Y25466D01*
X94560Y24600D01*
X95427Y23934D01*
X96436Y23516D01*
X97020Y23439D01*
Y27059D01*
D02*
G37*
G36*
X187008Y25310D02*
X185980Y25174D01*
X185022Y24778D01*
X184200Y24147D01*
X183569Y23324D01*
X183172Y22366D01*
X183037Y21339D01*
X183143Y20535D01*
X182736Y20185D01*
X182336Y20351D01*
X181102Y20513D01*
X179869Y20351D01*
X178720Y19875D01*
X177733Y19117D01*
X176976Y18131D01*
X176499Y16981D01*
X176337Y15748D01*
X176499Y14515D01*
X176976Y13365D01*
X177733Y12378D01*
X178720Y11621D01*
X179869Y11145D01*
X181102Y10983D01*
X182336Y11145D01*
X183485Y11621D01*
X184472Y12378D01*
X185229Y13365D01*
X185705Y14515D01*
X185868Y15748D01*
X185705Y16981D01*
X185658Y17095D01*
X185878Y17374D01*
X186033Y17496D01*
X187008Y17368D01*
X188036Y17503D01*
X188993Y17900D01*
X189816Y18531D01*
X190447Y19353D01*
X190843Y20311D01*
X190979Y21339D01*
X190843Y22366D01*
X190447Y23324D01*
X189816Y24147D01*
X188993Y24778D01*
X188036Y25174D01*
X187008Y25310D01*
D02*
G37*
G36*
X171024Y27514D02*
X169449D01*
X168421Y27379D01*
X167463Y26982D01*
X166641Y26351D01*
X166010Y25529D01*
X165613Y24571D01*
X165478Y23543D01*
X165613Y22515D01*
X166010Y21558D01*
X166641Y20735D01*
X167463Y20104D01*
X168421Y19708D01*
X169449Y19572D01*
X171024D01*
X172051Y19708D01*
X173009Y20104D01*
X173831Y20735D01*
X174463Y21558D01*
X174859Y22515D01*
X174995Y23543D01*
X174859Y24571D01*
X174463Y25529D01*
X173831Y26351D01*
X173009Y26982D01*
X172051Y27379D01*
X171024Y27514D01*
D02*
G37*
G36*
X111024D02*
X109449D01*
X108421Y27379D01*
X107463Y26982D01*
X106641Y26351D01*
X106010Y25529D01*
X105613Y24571D01*
X105478Y23543D01*
X105613Y22515D01*
X106010Y21558D01*
X106641Y20735D01*
X107463Y20104D01*
X108421Y19708D01*
X109449Y19572D01*
X111024D01*
X112051Y19708D01*
X113009Y20104D01*
X113831Y20735D01*
X114463Y21558D01*
X114859Y22515D01*
X114995Y23543D01*
X114859Y24571D01*
X114463Y25529D01*
X113831Y26351D01*
X113009Y26982D01*
X112051Y27379D01*
X111024Y27514D01*
D02*
G37*
G36*
X171024Y17514D02*
X169449D01*
X168421Y17379D01*
X167463Y16982D01*
X166641Y16351D01*
X166010Y15529D01*
X165613Y14571D01*
X165478Y13543D01*
X165613Y12516D01*
X166010Y11558D01*
X166641Y10735D01*
X167463Y10104D01*
X168421Y9708D01*
X169449Y9572D01*
X171024D01*
X172051Y9708D01*
X173009Y10104D01*
X173831Y10735D01*
X174463Y11558D01*
X174859Y12516D01*
X174995Y13543D01*
X174859Y14571D01*
X174463Y15529D01*
X173831Y16351D01*
X173009Y16982D01*
X172051Y17379D01*
X171024Y17514D01*
D02*
G37*
%LPD*%
G36*
X112695Y188215D02*
X112621Y188036D01*
X112486Y187008D01*
X112621Y185980D01*
X113018Y185022D01*
X113649Y184200D01*
X113688Y184170D01*
X113528Y183696D01*
X81496D01*
X80805Y183559D01*
X80219Y183167D01*
X75134Y178082D01*
X74757Y178413D01*
X74993Y178720D01*
X75469Y179869D01*
X75631Y181102D01*
X75469Y182336D01*
X75317Y182704D01*
X75677Y183140D01*
X76457Y183037D01*
X77485Y183172D01*
X78442Y183569D01*
X79265Y184200D01*
X79896Y185022D01*
X80292Y185980D01*
X80428Y187008D01*
X80292Y188036D01*
X79896Y188993D01*
X79265Y189816D01*
X79225Y189846D01*
X79386Y190320D01*
X110590D01*
X112695Y188215D01*
D02*
G37*
G36*
X157474Y156749D02*
X156956Y156351D01*
X156325Y155529D01*
X156251Y155350D01*
X135827D01*
X135136Y155212D01*
X134550Y154821D01*
X124707Y144978D01*
X124315Y144392D01*
X124178Y143701D01*
Y142198D01*
X123678Y142165D01*
X123599Y142760D01*
X123203Y143718D01*
X122572Y144540D01*
X121749Y145171D01*
X121246Y145380D01*
X121041Y145687D01*
X116986Y149742D01*
X116400Y150133D01*
X115709Y150271D01*
X114961D01*
Y155203D01*
X115423Y155394D01*
X116021Y154796D01*
X115928Y154571D01*
X115793Y153543D01*
X115928Y152516D01*
X116325Y151558D01*
X116956Y150735D01*
X117778Y150104D01*
X118736Y149708D01*
X119764Y149572D01*
X120791Y149708D01*
X121749Y150104D01*
X122572Y150735D01*
X123203Y151558D01*
X123599Y152516D01*
X123735Y153543D01*
X123599Y154571D01*
X123203Y155529D01*
X122572Y156351D01*
X122054Y156749D01*
X122223Y157249D01*
X157304D01*
X157474Y156749D01*
D02*
G37*
G36*
X116963Y144655D02*
X116956Y144540D01*
X116325Y143718D01*
X115928Y142760D01*
X115793Y141732D01*
X115928Y140705D01*
X116325Y139747D01*
X116956Y138924D01*
X117778Y138293D01*
X118736Y137897D01*
X119764Y137761D01*
X120791Y137897D01*
X121749Y138293D01*
X122572Y138924D01*
X123203Y139747D01*
X123599Y140705D01*
X123678Y141300D01*
X124178Y141267D01*
Y130350D01*
X123602Y130111D01*
X122615Y129354D01*
X121858Y128367D01*
X121381Y127218D01*
X121219Y125984D01*
X121381Y124751D01*
X121858Y123602D01*
X122615Y122615D01*
X123602Y121858D01*
X124751Y121381D01*
X125984Y121219D01*
X127218Y121381D01*
X127817Y121630D01*
X128100Y121206D01*
X127205Y120310D01*
X114403D01*
X114157Y120810D01*
X114648Y121451D01*
X115066Y122460D01*
X115143Y123043D01*
X110236D01*
Y123543D01*
X109736D01*
Y127729D01*
X109449D01*
X108366Y127586D01*
X107356Y127168D01*
X106489Y126503D01*
X105824Y125636D01*
X105406Y124627D01*
X105269Y123583D01*
X105085Y123455D01*
X104820Y123325D01*
X100884Y127261D01*
X100298Y127653D01*
X99606Y127791D01*
X75232D01*
X74993Y128367D01*
X74236Y129354D01*
X73902Y129610D01*
X74063Y130083D01*
X82284D01*
X82975Y130221D01*
X83561Y130613D01*
X86069Y133121D01*
X86461Y133172D01*
X87419Y133569D01*
X88241Y134200D01*
X88872Y135022D01*
X89269Y135980D01*
X89404Y137008D01*
Y138583D01*
X89269Y139610D01*
X88872Y140568D01*
X88241Y141391D01*
X87419Y142022D01*
X86461Y142418D01*
X85433Y142554D01*
X84405Y142418D01*
X83448Y142022D01*
X82625Y141391D01*
X81994Y140568D01*
X81597Y139610D01*
X81462Y138583D01*
Y137008D01*
X81597Y135980D01*
X81994Y135022D01*
X82371Y134532D01*
X81535Y133696D01*
X78362D01*
X78201Y134170D01*
X78241Y134200D01*
X78872Y135022D01*
X79269Y135980D01*
X79404Y137008D01*
Y138583D01*
X79269Y139610D01*
X78872Y140568D01*
X78241Y141391D01*
X77419Y142022D01*
X77239Y142096D01*
Y142795D01*
X81103Y146658D01*
X106249D01*
X106493Y146158D01*
X106010Y145529D01*
X105613Y144571D01*
X105478Y143543D01*
X105613Y142516D01*
X106010Y141558D01*
X106641Y140735D01*
X107463Y140104D01*
X108421Y139708D01*
X109449Y139572D01*
X111024D01*
X112051Y139708D01*
X113009Y140104D01*
X113831Y140735D01*
X114463Y141558D01*
X114859Y142516D01*
X114995Y143543D01*
X114859Y144571D01*
X114463Y145529D01*
X113980Y146158D01*
X114224Y146658D01*
X114960D01*
X116963Y144655D01*
D02*
G37*
G36*
X105512Y150271D02*
X80354D01*
X79663Y150133D01*
X79077Y149742D01*
X74156Y144821D01*
X73764Y144235D01*
X73627Y143543D01*
Y142096D01*
X73448Y142022D01*
X72625Y141391D01*
X71994Y140568D01*
X71597Y139610D01*
X71462Y138583D01*
Y137008D01*
X71597Y135980D01*
X71994Y135022D01*
X72625Y134200D01*
X72665Y134170D01*
X72504Y133696D01*
X68362D01*
X68201Y134170D01*
X68241Y134200D01*
X68872Y135022D01*
X69269Y135980D01*
X69404Y137008D01*
Y138583D01*
X69269Y139610D01*
X68872Y140568D01*
X68241Y141391D01*
X67419Y142022D01*
X67239Y142096D01*
Y146181D01*
X72795Y151737D01*
X87402D01*
X88093Y151874D01*
X88679Y152266D01*
X93662Y157249D01*
X105512D01*
Y150271D01*
D02*
G37*
G36*
X69980Y154031D02*
X64156Y148206D01*
X63764Y147620D01*
X63627Y146929D01*
Y142096D01*
X63448Y142022D01*
X62625Y141391D01*
X61994Y140568D01*
X61597Y139610D01*
X61462Y138583D01*
Y137008D01*
X61597Y135980D01*
X61994Y135022D01*
X62625Y134200D01*
X62665Y134170D01*
X62504Y133696D01*
X58362D01*
X58201Y134170D01*
X58241Y134200D01*
X58872Y135022D01*
X59269Y135980D01*
X59404Y137008D01*
Y138583D01*
X59269Y139610D01*
X58872Y140568D01*
X58241Y141391D01*
X57419Y142022D01*
X57239Y142096D01*
Y147598D01*
X64134Y154493D01*
X69789D01*
X69980Y154031D01*
D02*
G37*
G36*
X39370Y133071D02*
Y133071D01*
X39783Y132860D01*
X42030Y130613D01*
X42616Y130221D01*
X43307Y130083D01*
X67670D01*
X67830Y129610D01*
X67497Y129354D01*
X66739Y128367D01*
X66263Y127218D01*
X66101Y125984D01*
X66263Y124751D01*
X66739Y123602D01*
X67497Y122615D01*
X68309Y121991D01*
X68139Y121491D01*
X46811D01*
X37239Y131063D01*
Y133071D01*
X39370D01*
X39370Y133071D01*
D02*
G37*
G36*
X85001Y117379D02*
X84405Y117300D01*
X83448Y116903D01*
X82625Y116272D01*
X81994Y115450D01*
X81597Y114492D01*
X81462Y113465D01*
Y111890D01*
X81597Y110862D01*
X81994Y109904D01*
X82625Y109082D01*
X83448Y108451D01*
X84405Y108054D01*
X85079Y107966D01*
X85299Y107936D01*
Y107432D01*
X85079Y107403D01*
X84575Y107337D01*
X83775Y107005D01*
X83088Y106479D01*
X82561Y105792D01*
X82230Y104992D01*
X82117Y104134D01*
X82230Y103276D01*
X82457Y102728D01*
X79136Y99407D01*
X78662Y99640D01*
X78710Y100000D01*
X78597Y100858D01*
X78265Y101658D01*
X77738Y102345D01*
X77239Y102727D01*
Y108377D01*
X77419Y108451D01*
X78241Y109082D01*
X78872Y109904D01*
X79269Y110862D01*
X79404Y111890D01*
Y113465D01*
X79269Y114492D01*
X78872Y115450D01*
X78241Y116272D01*
X77419Y116903D01*
X76461Y117300D01*
X75865Y117379D01*
X75898Y117879D01*
X84968D01*
X85001Y117379D01*
D02*
G37*
%LPC*%
G36*
X95933Y142702D02*
Y138295D01*
X99619D01*
Y138583D01*
X99476Y139666D01*
X99058Y140675D01*
X98393Y141542D01*
X97526Y142207D01*
X96516Y142625D01*
X95933Y142702D01*
D02*
G37*
G36*
X94933Y142702D02*
X94350Y142625D01*
X93340Y142207D01*
X92474Y141542D01*
X91808Y140675D01*
X91390Y139666D01*
X91248Y138583D01*
Y138295D01*
X94933D01*
Y142702D01*
D02*
G37*
G36*
Y137295D02*
X91248D01*
Y137008D01*
X91390Y135925D01*
X91808Y134915D01*
X92474Y134048D01*
X93340Y133383D01*
X94350Y132965D01*
X94933Y132888D01*
Y137295D01*
D02*
G37*
G36*
X99619D02*
X95933D01*
Y132888D01*
X96516Y132965D01*
X97526Y133383D01*
X98393Y134048D01*
X99058Y134915D01*
X99476Y135925D01*
X99619Y137008D01*
Y137295D01*
D02*
G37*
G36*
X111024Y137514D02*
X109449D01*
X108421Y137379D01*
X107463Y136982D01*
X106641Y136351D01*
X106010Y135529D01*
X105613Y134571D01*
X105478Y133543D01*
X105613Y132516D01*
X106010Y131558D01*
X106641Y130735D01*
X107463Y130104D01*
X108421Y129708D01*
X109449Y129572D01*
X111024D01*
X112051Y129708D01*
X113009Y130104D01*
X113831Y130735D01*
X114463Y131558D01*
X114859Y132516D01*
X114995Y133543D01*
X114859Y134571D01*
X114463Y135529D01*
X113831Y136351D01*
X113009Y136982D01*
X112051Y137379D01*
X111024Y137514D01*
D02*
G37*
G36*
Y127729D02*
X110736D01*
Y124043D01*
X115143D01*
X115066Y124627D01*
X114648Y125636D01*
X113983Y126503D01*
X113116Y127168D01*
X112107Y127586D01*
X111024Y127729D01*
D02*
G37*
%LPD*%
G36*
X85534Y24120D02*
X86492Y23723D01*
X87520Y23588D01*
X87971Y23648D01*
X94061Y17558D01*
X93822Y16981D01*
X93660Y15748D01*
X93822Y14515D01*
X94071Y13916D01*
X93647Y13632D01*
X84405Y22874D01*
Y24359D01*
X84905Y24603D01*
X85534Y24120D01*
D02*
G37*
D10*
X92520Y54744D02*
X101181Y63406D01*
X103937Y46476D02*
Y75197D01*
X92520Y35059D02*
X103937Y46476D01*
X113062Y78622D02*
X119764Y85324D01*
Y86614D01*
X101181Y82823D02*
X106980Y88622D01*
X101181Y63406D02*
Y82823D01*
X103937Y75197D02*
X107386Y78646D01*
X107386D01*
X107410Y78622D01*
X113062D01*
X113819Y88622D02*
X120748Y95551D01*
X106980Y88622D02*
X113819D01*
X35433Y148031D02*
X40354Y143110D01*
Y134843D02*
Y143110D01*
Y134843D02*
X43307Y131890D01*
X55433Y148346D02*
X63386Y156299D01*
X85039D01*
X90551Y161811D01*
X65433Y146929D02*
X72047Y153543D01*
X87402D01*
X92913Y159055D01*
X118898D02*
X174488D01*
X116142Y161811D02*
X118898Y159055D01*
X90551Y161811D02*
X116142D01*
X92913Y159055D02*
X114316D01*
X119764Y153608D01*
X174488Y159055D02*
X187008Y171575D01*
X119764Y153543D02*
Y153608D01*
X118298Y181890D02*
X123416Y187008D01*
X135512D01*
X81496Y181890D02*
X118298D01*
X75433Y175827D02*
X81496Y181890D01*
X55433Y167795D02*
Y173743D01*
X73817Y192126D02*
X111339D01*
X55433Y173743D02*
X73817Y192126D01*
X68504Y161417D02*
X77559D01*
X80512Y164370D01*
Y172244D01*
X83465Y175197D01*
X75433Y143543D02*
X80354Y148465D01*
X115709D02*
X119764Y144409D01*
X80354Y148465D02*
X115709D01*
X9843Y154724D02*
Y171575D01*
Y154724D02*
X16535Y148031D01*
X35433D01*
X43307Y131890D02*
X82284D01*
X85433Y135039D01*
X69016Y22441D02*
X74016D01*
X77165Y19291D01*
Y11417D02*
Y19291D01*
X63898Y27559D02*
X69016Y22441D01*
X72047Y6299D02*
X77165Y11417D01*
X38583Y6299D02*
X72047D01*
X33465Y11417D02*
X38583Y6299D01*
X33465Y11417D02*
Y34646D01*
X24803Y43307D02*
X33465Y34646D01*
X15748Y43307D02*
X24803D01*
X64961Y9843D02*
X70866Y15748D01*
X40157Y9843D02*
X64961D01*
X37008Y12992D02*
X40157Y9843D01*
X37008Y12992D02*
Y20472D01*
X39370Y22835D01*
Y27244D01*
X82598Y42323D02*
X87520Y47244D01*
X82598Y22126D02*
Y42323D01*
Y22126D02*
X96102Y8622D01*
X146417D01*
X160748Y98465D02*
X174370D01*
X170236Y73543D02*
X173543D01*
X177165Y77165D01*
Y95669D01*
X174370Y98465D02*
X177165Y95669D01*
X160748Y98425D02*
Y98465D01*
X119764Y98425D02*
X120748Y97441D01*
Y95551D02*
Y97441D01*
X159764Y86614D02*
X160748Y85630D01*
Y73032D02*
Y85630D01*
Y73032D02*
X170236Y63543D01*
X74410Y100709D02*
X75433Y101732D01*
X75118Y100000D02*
X75394D01*
X74410Y100709D02*
X75118Y100000D01*
X43701Y90945D02*
X73228D01*
X86417Y104134D01*
X85433D02*
X86417D01*
X74410Y82677D02*
X75433D01*
X53937Y62205D02*
X74410Y82677D01*
X43701Y62205D02*
X53937D01*
X39370Y66535D02*
X43701Y62205D01*
X39370Y66535D02*
Y67244D01*
X35433Y82677D02*
X43701Y90945D01*
X9843Y116457D02*
X15669D01*
X20079Y120866D01*
X37244D01*
X45433Y112677D01*
X75433Y101732D02*
Y112677D01*
X85433Y135039D02*
Y137795D01*
X75433D02*
Y143543D01*
X119764Y141732D02*
Y144409D01*
X65433Y137795D02*
Y146929D01*
X55433Y137795D02*
Y148346D01*
X109921Y175197D02*
X119764Y165354D01*
X83465Y175197D02*
X109921D01*
X65433Y164488D02*
X68504Y161417D01*
X65433Y164488D02*
Y167795D01*
X75433D02*
Y175827D01*
X111339Y192126D02*
X116457Y187008D01*
X45433Y167795D02*
Y178504D01*
X53937Y187008D01*
X61339D01*
X95433Y108346D02*
X110236Y93543D01*
X95433Y108346D02*
Y112677D01*
X35433Y130315D02*
Y137795D01*
Y130315D02*
X46063Y119685D01*
X98032D01*
X101969Y115748D01*
Y111811D02*
Y115748D01*
Y111811D02*
X110236Y103543D01*
X95433Y112677D02*
Y115591D01*
X159764Y43307D02*
X160000Y43543D01*
X170236D01*
X159764Y55118D02*
X161339Y53543D01*
X170236D01*
X23622Y112362D02*
X23937Y112677D01*
X35433D01*
X23622Y167480D02*
X23937Y167795D01*
X35433D01*
X146417Y8622D02*
X153543Y15748D01*
X87520Y26654D02*
Y27559D01*
Y26654D02*
X98425Y15748D01*
X43307D02*
X49213D01*
X56693Y23228D01*
Y40039D01*
X63898Y47244D01*
X144016Y181102D02*
X159764Y165354D01*
X125984Y181102D02*
X144016D01*
X151181Y141732D02*
X159764D01*
X127953Y118504D02*
X151181Y141732D01*
X107087Y118504D02*
X127953D01*
X99606Y125984D02*
X107087Y118504D01*
X70866Y125984D02*
X99606D01*
X135827Y153543D02*
X159764D01*
X125984Y143701D02*
X135827Y153543D01*
X125984Y125984D02*
Y143701D01*
X151575Y110236D02*
X159764D01*
X145669Y104331D02*
X151575Y110236D01*
X145669Y90551D02*
Y104331D01*
X125984Y70866D02*
X145669Y90551D01*
X141732Y31496D02*
X159764D01*
X125984Y15748D02*
X141732Y31496D01*
X51181Y27244D02*
Y51181D01*
X70866Y70866D01*
X16063Y15748D02*
X27559Y27244D01*
X15748Y15748D02*
X16063D01*
X9842Y76457D02*
X15433Y70866D01*
X15748D01*
X9843Y131575D02*
X15433Y125984D01*
X15748D01*
X21339Y186693D02*
Y187008D01*
X15748Y181102D02*
X21339Y186693D01*
X70866Y181417D02*
X76457Y187008D01*
X70866Y181102D02*
Y181417D01*
X175512Y187008D02*
X181102Y181417D01*
Y181102D02*
Y181417D01*
X181417Y125984D02*
X187008Y131575D01*
X181102Y125984D02*
X181417D01*
X181417Y70866D02*
X187008Y76457D01*
X181102Y70866D02*
X181417D01*
X186693Y21339D02*
X187008D01*
X181102Y15748D02*
X186693Y21339D01*
D11*
X120748Y98425D02*
D03*
X160748D02*
D03*
X120748Y86614D02*
D03*
X160748D02*
D03*
X119764Y55118D02*
D03*
X159764D02*
D03*
X119764Y43307D02*
D03*
X159764D02*
D03*
X61339Y187008D02*
D03*
X21339D02*
D03*
X116457D02*
D03*
X76457D02*
D03*
X119764Y165354D02*
D03*
X159764D02*
D03*
X135512Y187008D02*
D03*
X175512D02*
D03*
X9843Y171575D02*
D03*
Y131575D02*
D03*
X119764Y141732D02*
D03*
X159764D02*
D03*
X119764Y153543D02*
D03*
X159764D02*
D03*
X187008Y171575D02*
D03*
Y131575D02*
D03*
X9843Y116457D02*
D03*
Y76457D02*
D03*
X51181Y67244D02*
D03*
Y27244D02*
D03*
X120748Y110236D02*
D03*
X160748D02*
D03*
X187008Y116457D02*
D03*
Y76457D02*
D03*
X27559Y67244D02*
D03*
Y27244D02*
D03*
X39370Y67244D02*
D03*
Y27244D02*
D03*
X119764Y31496D02*
D03*
X159764D02*
D03*
X187008Y61339D02*
D03*
Y21339D02*
D03*
X87520Y47244D02*
D03*
X92520Y54744D02*
D03*
X97520Y47244D02*
D03*
X87520Y27559D02*
D03*
X92520Y35059D02*
D03*
X97520Y27559D02*
D03*
X63898Y47244D02*
D03*
X68898Y54744D02*
D03*
X73898Y47244D02*
D03*
X63898Y27559D02*
D03*
X68898Y35059D02*
D03*
X73898Y27559D02*
D03*
D12*
X23622Y102362D02*
D03*
Y112362D02*
D03*
Y157480D02*
D03*
Y167480D02*
D03*
D13*
X170236Y153543D02*
D03*
Y143543D02*
D03*
Y133543D02*
D03*
Y123543D02*
D03*
Y113543D02*
D03*
Y103543D02*
D03*
Y93543D02*
D03*
Y83543D02*
D03*
Y73543D02*
D03*
Y63543D02*
D03*
Y53543D02*
D03*
Y43543D02*
D03*
Y33543D02*
D03*
Y23543D02*
D03*
Y13543D02*
D03*
X110236D02*
D03*
Y23543D02*
D03*
Y33543D02*
D03*
Y43543D02*
D03*
Y53543D02*
D03*
Y63543D02*
D03*
Y73543D02*
D03*
Y83543D02*
D03*
Y93543D02*
D03*
Y103543D02*
D03*
Y113543D02*
D03*
Y123543D02*
D03*
Y133543D02*
D03*
Y143543D02*
D03*
D14*
Y153543D02*
D03*
D15*
X181102Y15748D02*
D03*
X125984D02*
D03*
X70866D02*
D03*
X15748D02*
D03*
X181102Y70866D02*
D03*
X125984D02*
D03*
X70866D02*
D03*
X15748D02*
D03*
X181102Y125984D02*
D03*
X125984D02*
D03*
X70866D02*
D03*
X15748D02*
D03*
X181102Y181102D02*
D03*
X125984D02*
D03*
X70866D02*
D03*
X15748D02*
D03*
Y43307D02*
D03*
X153543Y15748D02*
D03*
X98425D02*
D03*
X43307D02*
D03*
D16*
X35433Y82677D02*
D03*
Y137795D02*
D03*
D17*
X45433Y82677D02*
D03*
X55433D02*
D03*
X65433D02*
D03*
X75433D02*
D03*
X85433D02*
D03*
X95433D02*
D03*
X75433Y112677D02*
D03*
X65433D02*
D03*
X55433D02*
D03*
X45433D02*
D03*
X35433D02*
D03*
X95433D02*
D03*
X85433D02*
D03*
X45433Y137795D02*
D03*
X55433D02*
D03*
X65433D02*
D03*
X75433D02*
D03*
X85433D02*
D03*
X95433D02*
D03*
X75433Y167795D02*
D03*
X65433D02*
D03*
X55433D02*
D03*
X45433D02*
D03*
X35433D02*
D03*
X95433D02*
D03*
X85433D02*
D03*
D18*
Y104134D02*
D03*
X75394Y100000D02*
D03*
M02*
