M48
;Layer_Color=9474304
;FILE_FORMAT=2:5
INCH,LZ
;TYPE=PLATED
T1F00S00C0.02800
T2F00S00C0.03150
T3F00S00C0.03937
%
T01
X0075394Y01
X0085433Y0104134
T02
X0015748Y0015748
X0027559Y0027244
X003937
X0051181
X0063898Y0027559
X0073898
X0068898Y0035059
X0063898Y0047244
X0073898
X0068898Y0054744
X0070866Y0070866
X0051181Y0067244
X003937
X0027559
X0015748Y0070866
Y0043307
X0043307Y0015748
X0070866
X0098425
X009752Y0027559
X008752
X009252Y0035059
X008752Y0047244
X009752
X009252Y0054744
X0119764Y0055118
Y0043307
Y0031496
X0125984Y0015748
X0153543
X0159764Y0031496
Y0043307
Y0055118
X0187008Y0061339
X0181102Y0070866
Y0015748
X0187008Y0021339
X0125984Y0070866
X0120748Y0086614
Y0098425
Y0110236
X0125984Y0125984
X0119764Y0141732
Y0153543
Y0165354
X0125984Y0181102
X0116457Y0187008
X0135512
X0175512
X0181102Y0181102
X0187008Y0171575
X0159764Y0165354
Y0153543
Y0141732
X0160748Y0110236
Y0098425
Y0086614
X0187008Y0076457
Y0116457
Y0131575
X0181102Y0125984
X0076457Y0187008
X0070866Y0181102
X0061339Y0187008
X0021339
X0015748Y0181102
X0009843Y0171575
Y0131575
X0015748Y0125984
X0009843Y0116457
Y0076457
X0070866Y0125984
T03
X0110236Y0013543
Y0023543
Y0033543
Y0043543
Y0053543
Y0063543
Y0073543
X0170236
Y0063543
Y0053543
Y0043543
Y0033543
Y0023543
Y0013543
Y0083543
Y0093543
Y0103543
Y0113543
Y0123543
Y0133543
Y0143543
Y0153543
X0110236
Y0143543
Y0133543
Y0123543
Y0113543
Y0103543
Y0093543
Y0083543
X0095433Y0082677
X0085433
X0075433
Y0112677
X0085433
X0095433
Y0137795
X0085433
X0075433
Y0167795
X0085433
X0095433
X0065433
X0055433
X0045433
X0035433
X0023622Y016748
Y015748
X0035433Y0137795
X0045433
X0055433
X0065433
Y0112677
X0055433
X0045433
X0035433
X0023622Y0112362
Y0102362
X0035433Y0082677
X0045433
X0055433
X0065433
M30
